<svg xmlns="http://www.w3.org/2000/svg" xmlns:xlink="http://www.w3.org/1999/xlink" width="32" height="32" viewBox="0 0 32 32">
  <defs>
    <clipPath id="clip-path">
      <rect id="Rectangle_18" data-name="Rectangle 18" width="32" height="32" transform="translate(0 0.014)" fill="#636bfe"/>
    </clipPath>
  </defs>
  <g id="Group_25" data-name="Group 25" transform="translate(0 -0.014)" clip-path="url(#clip-path)">
    <path id="Path_17" data-name="Path 17" d="M817.589,963.884l.988-.532s-.007-14.568-.024-15.317a17.12,17.12,0,0,1,.026-2.287,11.343,11.343,0,0,1,.47-2.766,10.14,10.14,0,0,1,.9-2.024,7.054,7.054,0,0,1,.955-1.359,5.164,5.164,0,0,1,3.157-1.435q-.818-.184-1.645-.376-.551-.128-1.1-.258a8.1,8.1,0,0,1,2.73-1.773,12.586,12.586,0,0,0-2.554.845,6.379,6.379,0,0,0-1.5.917,4.975,4.975,0,0,0-1.4,1.891,48.011,48.011,0,0,0-1.474,4.989c-.591,2.491-.663,9.756-.642,19.485" transform="translate(-808.619 -929.79)" fill="#0d0dff"/>
    <path id="Path_18" data-name="Path 18" d="M866.42,942.869l-5.24,15.849v9.831h5.24Z" transform="translate(-837.952 -934.454)" fill="#636bfe"/>
    <path id="Path_19" data-name="Path 19" d="M812.587,932.774c.994-.785,1.485-1.1,5-2.3,2.619-.893,5.071-1.625,6.45-2.066-4.959.045-8.515.156-9.421.3l-1.762.285h0a11.437,11.437,0,0,0-1.716.52,13.771,13.771,0,0,0-3.384,1.988c-3.671,3.1-3.5,9.774-3.487,10.1v17.46h5.317V942.207C809.359,935.94,811.491,933.64,812.587,932.774Z" transform="translate(-800.611 -924.969)" fill="#636bfe"/>
    <g id="Group_24" data-name="Group 24" transform="translate(13.282 2.356)">
      <path id="Path_20" data-name="Path 20" d="M848.545,925.254l-16.281,5.234a14.974,14.974,0,0,1,1.6.212,14.555,14.555,0,0,1,2.358.646,13.192,13.192,0,0,1,3.464,1.948Z" transform="translate(-832.264 -925.254)" fill="#5858e9"/>
      <path id="Path_21" data-name="Path 21" d="M856.469,934.368a8.24,8.24,0,0,1,.926,2.172,14.359,14.359,0,0,1,.251,3.4c.009.634,0,1.1,0,1.388-.012,1.038.083,5.042.083,5.042l6.7-21.116Z" transform="translate(-848.143 -925.254)" fill="#5858e9"/>
    </g>
    <path id="Path_22" data-name="Path 22" d="M852.117,932.865c.124.1.269.191.4.311.157.141.3.281.418.414l8.632-8.336S855.064,930.437,852.117,932.865Z" transform="translate(-832.006 -922.899)" fill="#0d0dff"/>
    <path id="Path_23" data-name="Path 23" d="M844.467,952.14c-7.285,6.723-6.208,17.647-.353,22.966,4.548,4.132,12.194,4.649,18.37.782" transform="translate(-823.637 -940.536)" fill="none" stroke="#5858e9" stroke-miterlimit="10" stroke-width="1" stroke-dasharray="5"/>
  </g>
</svg>
