<svg id="Layer_1" data-name="Layer 1" xmlns="http://www.w3.org/2000/svg" xmlns:xlink="http://www.w3.org/1999/xlink" viewBox="0 0 1920 554"><defs><style>.cls-1{fill:url(#linear-gradient);}.cls-2{fill:#f9d60c;}.cls-3{fill:#271e49;}.cls-23,.cls-25,.cls-29,.cls-32,.cls-35,.cls-4{fill:none;}.cls-23,.cls-35,.cls-4{stroke:#fff;}.cls-4{stroke-miterlimit:10;}.cls-5{fill:#001836;}.cls-6{fill:#c7980a;}.cls-7{fill:#fdca32;}.cls-8{fill:#6b5800;}.cls-9{fill:#d1d1d1;}.cls-10{fill:#fcf2d2;}.cls-11{fill:#edbd2f;}.cls-12{fill:#8c7300;}.cls-13{opacity:0.59;}.cls-14,.cls-15{fill-rule:evenodd;}.cls-14{fill:url(#radial-gradient);}.cls-15{opacity:0.3;fill:url(#radial-gradient-2);}.cls-15,.cls-54,.cls-56,.cls-57,.cls-58,.cls-59,.cls-60{isolation:isolate;}.cls-16{fill:#f5f4f5;}.cls-17{fill:#ebebeb;}.cls-18{fill:#e0e0e0;}.cls-19{fill:#fbfbfb;}.cls-20,.cls-57,.cls-59,.cls-60{fill:#fff;}.cls-21{opacity:0.79;}.cls-22{fill:#6a66d1;}.cls-23,.cls-25,.cls-29,.cls-32{stroke-linecap:round;stroke-linejoin:round;}.cls-23{stroke-width:1.91px;}.cls-24{fill:#41339c;}.cls-25,.cls-32{stroke:#000;}.cls-25{stroke-width:0.52px;}.cls-26{fill:#da315c;}.cls-27{fill:#e2a485;}.cls-28{fill:#eaad3a;}.cls-29{stroke:#bb623f;stroke-width:0.51px;}.cls-30{fill:#bb623f;}.cls-31{fill:#060606;}.cls-32{stroke-width:0.53px;}.cls-33{fill:#b3143c;}.cls-34{fill:#2a59ff;}.cls-35{stroke-miterlimit:10;}.cls-36{fill:#d3d0f4;}.cls-37{fill:#ff3162;}.cls-38{fill:#d7a40b;}.cls-39{fill:#a37c09;}.cls-40{fill:#ffa33e;}.cls-41{fill:#ffbc50;}.cls-42{fill:#f4a240;}.cls-43{fill:#dd9833;}.cls-44{fill:#aa5e2b;}.cls-45{fill:#7f6032;}.cls-46{fill:#c15934;}.cls-47{fill:#ea8b2d;}.cls-48{fill:#ea8d32;}.cls-49{fill:#689bad;}.cls-50{fill:#81bccc;}.cls-51{fill:#4e8593;}.cls-52{fill:#96ccc2;}.cls-53{fill:#cace78;}.cls-54{fill:#ffd766;opacity:0.6;}.cls-55{fill:#ffe377;}.cls-56{fill:#fbc973;opacity:0.5;}.cls-57{opacity:0.25;}.cls-59,.cls-60{font-size:50px;font-weight:700;}.cls-59{font-family:SegoeUI-Bold, Segoe UI;}.cls-60{font-family:Helvetica-Bold, Helvetica;}</style><linearGradient id="linear-gradient" x1="0.99" y1="822.35" x2="0.05" y2="823.52" gradientTransform="matrix(1920, 0, 0, -554, -45.63, 456176.94)" gradientUnits="userSpaceOnUse"><stop offset="0" stop-color="#6269fe"/><stop offset="1" stop-color="#3d065f"/><stop offset="1" stop-color="#10054d"/></linearGradient><radialGradient id="radial-gradient" cx="3129.63" cy="846.13" r="0.04" gradientTransform="matrix(28.32, 8.71, 103.17, -335.74, -174191.8, 257919.62)" gradientUnits="userSpaceOnUse"><stop offset="0" stop-color="#409aa0"/><stop offset="0.3" stop-color="#3f979d"/><stop offset="0.46" stop-color="#3b9095"/><stop offset="0.58" stop-color="#368388"/><stop offset="0.69" stop-color="#2f7175"/><stop offset="0.78" stop-color="#25595d"/><stop offset="0.87" stop-color="#193c3e"/><stop offset="0.95" stop-color="#0b1a1b"/><stop offset="1"/></radialGradient><radialGradient id="radial-gradient-2" cx="-22429.71" cy="338.09" r="0.1" gradientTransform="matrix(-29.56, -2.04, -24.38, 350.38, -653113.61, -163219.18)" xlink:href="#radial-gradient"/></defs><g id="Group_19712" data-name="Group 19712"><g id="Group_19708" data-name="Group 19708"><rect id="Rectangle_9291" data-name="Rectangle 9291" class="cls-1" width="1920" height="554"/><g id="Group_16414" data-name="Group 16414"><rect id="Rectangle_9234" data-name="Rectangle 9234" class="cls-2" x="645.79" y="490.36" width="53.3" height="53.3"/><rect id="Rectangle_9235" data-name="Rectangle 9235" class="cls-3" x="699.08" y="490.36" width="39.51" height="53.3"/><line id="Line_149" data-name="Line 149" class="cls-4" x1="699.08" y1="543.65" x2="738.6" y2="490.36"/><line id="Line_150" data-name="Line 150" class="cls-4" x1="699.08" y1="490.36" x2="738.6" y2="543.65"/><rect id="Rectangle_9236" data-name="Rectangle 9236" class="cls-2" x="710.38" y="490.36" width="53.3" height="53.3"/><rect id="Rectangle_9237" data-name="Rectangle 9237" class="cls-3" x="763.68" y="490.36" width="39.51" height="53.3"/><line id="Line_151" data-name="Line 151" class="cls-4" x1="763.68" y1="543.65" x2="803.19" y2="490.36"/><line id="Line_152" data-name="Line 152" class="cls-4" x1="763.68" y1="490.36" x2="803.19" y2="543.65"/><rect id="Rectangle_9238" data-name="Rectangle 9238" class="cls-2" x="672.44" y="437.06" width="53.3" height="53.3"/><path id="Path_73004" data-name="Path 73004" class="cls-5" d="M902.81,1166.17c0,3.25-53.15,5.89-118.72,5.89s-118.72-2.64-118.72-5.89,53.15-5.89,118.72-5.89S902.81,1162.92,902.81,1166.17Z" transform="translate(-45.63 -618.06)"/><rect id="Rectangle_9249" data-name="Rectangle 9249" class="cls-6" x="656.88" y="462.92" width="43.8" height="42.88"/><rect id="Rectangle_9250" data-name="Rectangle 9250" class="cls-7" x="638.4" y="462.92" width="18.48" height="42.88"/><path id="Rectangle_9251" data-name="Rectangle 9251" class="cls-8" d="M740.63,1117.38h-7.12a2.43,2.43,0,0,1-2.43-2.43h0a2.43,2.43,0,0,1,2.43-2.43h7.12a2.43,2.43,0,0,1,2.44,2.43h0A2.43,2.43,0,0,1,740.63,1117.38Z" transform="translate(-45.63 -618.06)"/><rect id="Rectangle_9252" data-name="Rectangle 9252" class="cls-9" x="674.65" y="462.92" width="10.8" height="18.36"/><rect id="Rectangle_9253" data-name="Rectangle 9253" class="cls-10" x="643.4" y="462.92" width="6.87" height="18.36"/><rect id="Rectangle_9254" data-name="Rectangle 9254" class="cls-8" x="661.22" y="495" width="13.74" height="1.36"/><rect id="Rectangle_9255" data-name="Rectangle 9255" class="cls-8" x="661.22" y="492.32" width="7.49" height="1.36"/><rect id="Rectangle_9256" data-name="Rectangle 9256" class="cls-8" x="661.22" y="497.79" width="13.74" height="1.36"/><rect id="Rectangle_9262" data-name="Rectangle 9262" class="cls-11" x="642.57" y="505.82" width="43.99" height="43.06"/><rect id="Rectangle_9263" data-name="Rectangle 9263" class="cls-6" x="686.56" y="505.82" width="18.56" height="43.06"/><path id="Path_73008" data-name="Path 73008" class="cls-6" d="M721.8,1159.69l-3-4.41-3,3.63.89.11v3.71l4.33,0v-3.11Z" transform="translate(-45.63 -618.06)"/><path id="Path_73009" data-name="Path 73009" class="cls-6" d="M728.38,1159.69l-3-4.41-3.05,3.63.88.11v3.71l4.33,0v-3.11Z" transform="translate(-45.63 -618.06)"/><path id="Path_73010" data-name="Path 73010" class="cls-8" d="M721.57,1134h-24a2,2,0,0,1-2-2h0a2,2,0,0,1,2-2h24a2,2,0,0,1,2,2h0a2,2,0,0,1-2,2Z" transform="translate(-45.63 -618.06)"/><rect id="Rectangle_9264" data-name="Rectangle 9264" class="cls-12" x="646.45" y="540.07" width="17.16" height="1.7"/><rect id="Rectangle_9265" data-name="Rectangle 9265" class="cls-12" x="646.45" y="536.73" width="9.36" height="1.7"/><rect id="Rectangle_9266" data-name="Rectangle 9266" class="cls-12" x="646.45" y="543.56" width="17.16" height="1.7"/><rect id="Rectangle_9267" data-name="Rectangle 9267" class="cls-11" x="724.97" y="487.03" width="74.46" height="58.81"/><rect id="Rectangle_9268" data-name="Rectangle 9268" class="cls-6" x="799.42" y="487.03" width="25.34" height="58.81"/><rect id="Rectangle_9269" data-name="Rectangle 9269" class="cls-12" x="732.02" y="534.21" width="18.85" height="1.87"/><rect id="Rectangle_9270" data-name="Rectangle 9270" class="cls-12" x="732.02" y="530.54" width="10.28" height="1.87"/><rect id="Rectangle_9271" data-name="Rectangle 9271" class="cls-12" x="732.02" y="538.05" width="18.85" height="1.87"/><rect id="Rectangle_9272" data-name="Rectangle 9272" class="cls-10" x="751.82" y="487.03" width="20.76" height="13.89"/><path id="Path_73011" data-name="Path 73011" class="cls-6" d="M788.07,1138.5l-5.92-8.58-5.93,7.06,1.72.22v7.2l8.41-.07v-6Z" transform="translate(-45.63 -618.06)"/><rect id="Rectangle_9273" data-name="Rectangle 9273" class="cls-6" x="760.71" y="531.11" width="10.14" height="8.42" rx="1.93"/><rect id="Rectangle_9274" data-name="Rectangle 9274" class="cls-6" x="772.48" y="531.11" width="10.14" height="8.42" rx="1.93"/><rect id="Rectangle_9275" data-name="Rectangle 9275" class="cls-6" x="784.26" y="531.11" width="10.14" height="8.42" rx="1.93"/></g><g id="Group_16403" data-name="Group 16403" class="cls-13"><path id="Path_73821" data-name="Path 73821" class="cls-14" d="M1746.7,1101.45c-2.64,8.18-5.36,14.77-6.08,14.73s.82-6.72,3.46-14.9,5.36-14.78,6.08-14.73S1749.34,1093.27,1746.7,1101.45Z" transform="translate(-45.63 -618.06)"/><path id="Path_73841" data-name="Path 73841" class="cls-15" d="M1704.47,1093c2.63-8.19,5.36-14.78,6.08-14.73s-.83,6.72-3.46,14.9-5.36,14.77-6.08,14.73S1701.83,1101.14,1704.47,1093Z" transform="translate(-45.63 -618.06)"/><rect id="Rectangle_173" data-name="Rectangle 173" class="cls-16" x="1705.53" y="178.4" width="118.51" height="375.6"/><rect id="Rectangle_174" data-name="Rectangle 174" class="cls-17" x="1764.78" y="178.4" width="59.26" height="374.56"/><rect id="Rectangle_175" data-name="Rectangle 175" class="cls-16" x="1719.06" y="141.53" width="41.85" height="36.87"/><rect id="Rectangle_176" data-name="Rectangle 176" class="cls-17" x="1750.93" y="141.53" width="9.98" height="36.87"/><path id="Path_338" data-name="Path 338" class="cls-18" d="M1741.28,796.46v-2.15h131.85v2.15" transform="translate(-45.63 -618.06)"/><rect id="Rectangle_177" data-name="Rectangle 177" class="cls-19" x="1728.92" y="194.49" width="10.03" height="21.15"/><path id="Path_339" data-name="Path 339" class="cls-18" d="M1810.41,842c0,.22-13.27.4-29.63.4s-29.63-.18-29.63-.4,13.27-.4,29.63-.4S1810.41,841.78,1810.41,842Z" transform="translate(-45.63 -618.06)"/><rect id="Rectangle_178" data-name="Rectangle 178" class="cls-18" x="1788.69" y="194.49" width="10.03" height="21.15"/><path id="Path_340" data-name="Path 340" class="cls-18" d="M1870.18,842c0,.22-13.27.4-29.63.4s-29.63-.18-29.63-.4,13.26-.4,29.63-.4S1870.18,841.78,1870.18,842Z" transform="translate(-45.63 -618.06)"/><rect id="Rectangle_179" data-name="Rectangle 179" class="cls-18" x="1788.69" y="236.48" width="10.03" height="21.15"/><path id="Path_341" data-name="Path 341" class="cls-18" d="M1870.18,884c0,.22-13.27.4-29.63.4s-29.63-.18-29.63-.4,13.26-.4,29.63-.4S1870.18,883.77,1870.18,884Z" transform="translate(-45.63 -618.06)"/><rect id="Rectangle_180" data-name="Rectangle 180" class="cls-18" x="1788.69" y="279.75" width="10.03" height="21.15"/><path id="Path_342" data-name="Path 342" class="cls-18" d="M1870.18,927.26c0,.22-13.27.4-29.63.4s-29.63-.18-29.63-.4,13.26-.4,29.63-.4S1870.18,927,1870.18,927.26Z" transform="translate(-45.63 -618.06)"/><rect id="Rectangle_181" data-name="Rectangle 181" class="cls-18" x="1788.69" y="323.01" width="10.03" height="21.15"/><path id="Path_343" data-name="Path 343" class="cls-18" d="M1870.18,970.52c0,.23-13.27.4-29.63.4s-29.63-.18-29.63-.4,13.26-.4,29.63-.4S1870.18,970.3,1870.18,970.52Z" transform="translate(-45.63 -618.06)"/><rect id="Rectangle_182" data-name="Rectangle 182" class="cls-18" x="1788.69" y="365.03" width="10.03" height="21.15"/><path id="Path_344" data-name="Path 344" class="cls-18" d="M1870.18,1012.55c0,.22-13.27.4-29.63.4s-29.63-.18-29.63-.4,13.26-.4,29.63-.4S1870.18,1012.33,1870.18,1012.55Z" transform="translate(-45.63 -618.06)"/><rect id="Rectangle_183" data-name="Rectangle 183" class="cls-18" x="1788.69" y="407.23" width="10.03" height="21.15"/><rect id="Rectangle_184" data-name="Rectangle 184" class="cls-18" x="1788.69" y="449.98" width="10.03" height="21.15"/><path id="Path_345" data-name="Path 345" class="cls-18" d="M1870.18,1054.74c0,.23-13.27.4-29.63.4s-29.63-.18-29.63-.4,13.26-.4,29.63-.4S1870.18,1054.52,1870.18,1054.74Z" transform="translate(-45.63 -618.06)"/><rect id="Rectangle_185" data-name="Rectangle 185" class="cls-19" x="1728.92" y="237.12" width="10.03" height="21.15"/><path id="Path_346" data-name="Path 346" class="cls-18" d="M1810.41,884.64c0,.22-13.27.4-29.63.4s-29.63-.18-29.63-.4,13.27-.4,29.63-.4S1810.41,884.41,1810.41,884.64Z" transform="translate(-45.63 -618.06)"/><rect id="Rectangle_186" data-name="Rectangle 186" class="cls-19" x="1728.92" y="279.76" width="10.03" height="21.15"/><path id="Path_347" data-name="Path 347" class="cls-18" d="M1810.41,927.27c0,.23-13.27.4-29.63.4s-29.63-.18-29.63-.4,13.27-.4,29.63-.4S1810.41,927.05,1810.41,927.27Z" transform="translate(-45.63 -618.06)"/><rect id="Rectangle_187" data-name="Rectangle 187" class="cls-19" x="1728.92" y="322.4" width="10.03" height="21.15"/><path id="Path_348" data-name="Path 348" class="cls-18" d="M1810.41,969.91c0,.22-13.27.4-29.63.4s-29.63-.18-29.63-.4,13.27-.4,29.63-.4S1810.41,969.69,1810.41,969.91Z" transform="translate(-45.63 -618.06)"/><rect id="Rectangle_188" data-name="Rectangle 188" class="cls-19" x="1728.92" y="365.03" width="10.03" height="21.15"/><path id="Path_349" data-name="Path 349" class="cls-18" d="M1810.41,1012.55c0,.22-13.27.4-29.63.4s-29.63-.18-29.63-.4,13.27-.4,29.63-.4S1810.41,1012.33,1810.41,1012.55Z" transform="translate(-45.63 -618.06)"/><rect id="Rectangle_189" data-name="Rectangle 189" class="cls-19" x="1728.92" y="407.67" width="10.03" height="21.15"/><path id="Path_350" data-name="Path 350" class="cls-18" d="M1810.41,1055.19c0,.22-13.27.4-29.63.4s-29.63-.18-29.63-.4,13.27-.4,29.63-.4S1810.41,1055,1810.41,1055.19Z" transform="translate(-45.63 -618.06)"/><rect id="Rectangle_190" data-name="Rectangle 190" class="cls-19" x="1728.92" y="450.31" width="10.03" height="21.15"/><rect id="Rectangle_191" data-name="Rectangle 191" class="cls-16" x="1828.39" y="271.91" width="89.01" height="282.09"/><rect id="Rectangle_192" data-name="Rectangle 192" class="cls-17" x="1872.89" y="271.91" width="44.51" height="281.31"/><path id="Path_351" data-name="Path 351" class="cls-18" d="M1866.59,890v-1.62h99V890" transform="translate(-45.63 -618.06)"/><rect id="Rectangle_195" data-name="Rectangle 195" class="cls-19" x="1845.96" y="283.99" width="7.53" height="15.89"/><path id="Path_352" data-name="Path 352" class="cls-18" d="M1918.52,924.17c0,.17-10,.3-22.25.3s-22.26-.14-22.26-.3,10-.3,22.26-.3S1918.52,924,1918.52,924.17Z" transform="translate(-45.63 -618.06)"/><rect id="Rectangle_196" data-name="Rectangle 196" class="cls-18" x="1890.85" y="283.99" width="7.53" height="15.89"/><path id="Path_353" data-name="Path 353" class="cls-18" d="M1963.41,924.17c0,.17-10,.3-22.25.3s-22.26-.14-22.26-.3,10-.3,22.26-.3S1963.41,924,1963.41,924.17Z" transform="translate(-45.63 -618.06)"/><rect id="Rectangle_197" data-name="Rectangle 197" class="cls-18" x="1890.85" y="315.53" width="7.53" height="15.89"/><path id="Path_354" data-name="Path 354" class="cls-18" d="M1963.41,955.71c0,.17-10,.3-22.25.3s-22.26-.13-22.26-.3,10-.3,22.26-.3S1963.41,955.54,1963.41,955.71Z" transform="translate(-45.63 -618.06)"/><rect id="Rectangle_198" data-name="Rectangle 198" class="cls-18" x="1890.85" y="348.02" width="7.53" height="15.89"/><path id="Path_355" data-name="Path 355" class="cls-18" d="M1963.41,988.2c0,.17-10,.3-22.25.3s-22.26-.13-22.26-.3,10-.3,22.26-.3S1963.41,988,1963.41,988.2Z" transform="translate(-45.63 -618.06)"/><rect id="Rectangle_199" data-name="Rectangle 199" class="cls-18" x="1890.85" y="380.51" width="7.53" height="15.89"/><path id="Path_356" data-name="Path 356" class="cls-18" d="M1963.41,1020.7c0,.16-10,.3-22.25.3s-22.26-.14-22.26-.3,10-.3,22.26-.3S1963.41,1020.53,1963.41,1020.7Z" transform="translate(-45.63 -618.06)"/><rect id="Rectangle_200" data-name="Rectangle 200" class="cls-18" x="1890.85" y="412.08" width="7.53" height="15.89"/><path id="Path_357" data-name="Path 357" class="cls-18" d="M1963.41,1052.26c0,.17-10,.3-22.25.3s-22.26-.14-22.26-.3,10-.3,22.26-.3S1963.41,1052.09,1963.41,1052.26Z" transform="translate(-45.63 -618.06)"/><rect id="Rectangle_201" data-name="Rectangle 201" class="cls-18" x="1890.85" y="443.77" width="7.53" height="15.89"/><rect id="Rectangle_202" data-name="Rectangle 202" class="cls-18" x="1890.85" y="475.88" width="7.53" height="15.89"/><path id="Path_358" data-name="Path 358" class="cls-18" d="M1963.41,1084c0,.17-10,.3-22.25.3s-22.26-.13-22.26-.3,10-.3,22.26-.3S1963.41,1083.78,1963.41,1084Z" transform="translate(-45.63 -618.06)"/><rect id="Rectangle_203" data-name="Rectangle 203" class="cls-19" x="1845.96" y="316.01" width="7.53" height="15.89"/><path id="Path_359" data-name="Path 359" class="cls-18" d="M1918.52,956.19c0,.17-10,.3-22.25.3s-22.26-.13-22.26-.3,10-.3,22.26-.3S1918.52,956,1918.52,956.19Z" transform="translate(-45.63 -618.06)"/><rect id="Rectangle_204" data-name="Rectangle 204" class="cls-19" x="1845.96" y="348.03" width="7.53" height="15.89"/><path id="Path_360" data-name="Path 360" class="cls-18" d="M1918.52,988.22c0,.16-10,.3-22.25.3s-22.26-.14-22.26-.3,10-.3,22.26-.3S1918.52,988.05,1918.52,988.22Z" transform="translate(-45.63 -618.06)"/><rect id="Rectangle_205" data-name="Rectangle 205" class="cls-19" x="1845.96" y="380.06" width="7.53" height="15.89"/><path id="Path_361" data-name="Path 361" class="cls-18" d="M1918.52,1020.24c0,.17-10,.3-22.25.3s-22.26-.14-22.26-.3,10-.3,22.26-.3S1918.52,1020.07,1918.52,1020.24Z" transform="translate(-45.63 -618.06)"/><rect id="Rectangle_206" data-name="Rectangle 206" class="cls-19" x="1845.96" y="412.08" width="7.53" height="15.89"/><path id="Path_362" data-name="Path 362" class="cls-18" d="M1918.52,1052.26c0,.17-10,.3-22.25.3s-22.26-.14-22.26-.3,10-.3,22.26-.3S1918.52,1052.09,1918.52,1052.26Z" transform="translate(-45.63 -618.06)"/><rect id="Rectangle_207" data-name="Rectangle 207" class="cls-19" x="1845.96" y="444.1" width="7.53" height="15.89"/><path id="Path_363" data-name="Path 363" class="cls-18" d="M1918.52,1084.28c0,.17-10,.3-22.25.3s-22.26-.13-22.26-.3,10-.3,22.26-.3S1918.52,1084.12,1918.52,1084.28Z" transform="translate(-45.63 -618.06)"/><rect id="Rectangle_208" data-name="Rectangle 208" class="cls-19" x="1845.96" y="476.12" width="7.53" height="15.89"/><path id="Path_364" data-name="Path 364" class="cls-17" d="M1756.35,1172.06H1634.81L1634.28,980h121.54Z" transform="translate(-45.63 -618.06)"/><rect id="Rectangle_209" data-name="Rectangle 209" class="cls-18" x="1649.42" y="361.91" width="60.77" height="192.09"/><rect id="Rectangle_212" data-name="Rectangle 212" class="cls-18" x="1578.52" y="359.71" width="135.23" height="2.21"/><rect id="Rectangle_213" data-name="Rectangle 213" class="cls-20" x="1612.64" y="378.41" width="10.29" height="21.69"/><path id="Path_365" data-name="Path 365" class="cls-18" d="M1695.05,1026.67c0,.23-13.6.42-30.38.42s-30.39-.19-30.39-.42,13.6-.41,30.39-.41S1695.05,1026.44,1695.05,1026.67Z" transform="translate(-45.63 -618.06)"/><rect id="Rectangle_214" data-name="Rectangle 214" class="cls-16" x="1673.94" y="378.41" width="10.29" height="21.69"/><path id="Path_366" data-name="Path 366" class="cls-17" d="M1756.35,1026.67c0,.23-13.6.42-30.39.42s-30.38-.19-30.38-.42,13.6-.41,30.38-.41S1756.35,1026.44,1756.35,1026.67Z" transform="translate(-45.63 -618.06)"/><rect id="Rectangle_215" data-name="Rectangle 215" class="cls-16" x="1673.94" y="421.47" width="10.29" height="21.69"/><path id="Path_367" data-name="Path 367" class="cls-17" d="M1756.35,1069.74c0,.23-13.6.41-30.39.41s-30.38-.18-30.38-.41,13.6-.41,30.38-.41S1756.35,1069.51,1756.35,1069.74Z" transform="translate(-45.63 -618.06)"/><rect id="Rectangle_216" data-name="Rectangle 216" class="cls-16" x="1673.94" y="465.84" width="10.29" height="21.69"/><path id="Path_368" data-name="Path 368" class="cls-17" d="M1756.35,1114.11c0,.23-13.6.41-30.39.41s-30.38-.18-30.38-.41,13.6-.41,30.38-.41S1756.35,1113.88,1756.35,1114.11Z" transform="translate(-45.63 -618.06)"/><rect id="Rectangle_217" data-name="Rectangle 217" class="cls-16" x="1673.94" y="510.21" width="10.29" height="21.69"/><path id="Path_369" data-name="Path 369" class="cls-17" d="M1756.35,1158.48c0,.23-13.6.41-30.39.41s-30.38-.18-30.38-.41,13.6-.42,30.38-.42S1756.35,1158.25,1756.35,1158.48Z" transform="translate(-45.63 -618.06)"/><rect id="Rectangle_218" data-name="Rectangle 218" class="cls-20" x="1612.64" y="422.13" width="10.29" height="21.69"/><path id="Path_370" data-name="Path 370" class="cls-18" d="M1695.05,1070.4c0,.23-13.6.41-30.38.41s-30.39-.18-30.39-.41,13.6-.42,30.39-.42S1695.05,1070.17,1695.05,1070.4Z" transform="translate(-45.63 -618.06)"/><rect id="Rectangle_219" data-name="Rectangle 219" class="cls-20" x="1612.64" y="465.86" width="10.29" height="21.69"/><path id="Path_371" data-name="Path 371" class="cls-18" d="M1695.05,1114.12c0,.23-13.6.42-30.38.42s-30.39-.19-30.39-.42,13.6-.41,30.39-.41S1695.05,1113.9,1695.05,1114.12Z" transform="translate(-45.63 -618.06)"/><rect id="Rectangle_220" data-name="Rectangle 220" class="cls-20" x="1612.64" y="509.58" width="10.29" height="21.69"/><path id="Path_372" data-name="Path 372" class="cls-18" d="M1695.05,1157.85c0,.23-13.6.41-30.38.41s-30.39-.18-30.39-.41,13.6-.41,30.39-.41S1695.05,1157.62,1695.05,1157.85Z" transform="translate(-45.63 -618.06)"/><rect id="Rectangle_173-2" data-name="Rectangle 173-2" class="cls-16" x="1385.53" y="178.4" width="118.51" height="375.6"/><rect id="Rectangle_174-2" data-name="Rectangle 174-2" class="cls-17" x="1444.78" y="178.4" width="59.26" height="374.56"/><rect id="Rectangle_177-2" data-name="Rectangle 177-2" class="cls-19" x="1408.92" y="194.49" width="10.03" height="21.15"/><path id="Path_339-2" data-name="Path 339-2" class="cls-18" d="M1490.41,842c0,.22-13.27.4-29.63.4s-29.63-.18-29.63-.4,13.27-.4,29.63-.4S1490.41,841.78,1490.41,842Z" transform="translate(-45.63 -618.06)"/><rect id="Rectangle_178-2" data-name="Rectangle 178-2" class="cls-18" x="1468.69" y="194.49" width="10.03" height="21.15"/><path id="Path_340-2" data-name="Path 340-2" class="cls-18" d="M1550.18,842c0,.22-13.27.4-29.63.4s-29.63-.18-29.63-.4,13.26-.4,29.63-.4S1550.18,841.78,1550.18,842Z" transform="translate(-45.63 -618.06)"/><rect id="Rectangle_179-2" data-name="Rectangle 179-2" class="cls-18" x="1468.69" y="236.48" width="10.03" height="21.15"/><path id="Path_341-2" data-name="Path 341-2" class="cls-18" d="M1550.18,884c0,.22-13.27.4-29.63.4s-29.63-.18-29.63-.4,13.26-.4,29.63-.4S1550.18,883.77,1550.18,884Z" transform="translate(-45.63 -618.06)"/><rect id="Rectangle_180-2" data-name="Rectangle 180-2" class="cls-18" x="1468.69" y="279.75" width="10.03" height="21.15"/><path id="Path_342-2" data-name="Path 342-2" class="cls-18" d="M1550.18,927.26c0,.22-13.27.4-29.63.4s-29.63-.18-29.63-.4,13.26-.4,29.63-.4S1550.18,927,1550.18,927.26Z" transform="translate(-45.63 -618.06)"/><rect id="Rectangle_181-2" data-name="Rectangle 181-2" class="cls-18" x="1468.69" y="323.01" width="10.03" height="21.15"/><path id="Path_343-2" data-name="Path 343-2" class="cls-18" d="M1550.18,970.52c0,.23-13.27.4-29.63.4s-29.63-.18-29.63-.4,13.26-.4,29.63-.4S1550.18,970.3,1550.18,970.52Z" transform="translate(-45.63 -618.06)"/><rect id="Rectangle_182-2" data-name="Rectangle 182-2" class="cls-18" x="1468.69" y="365.03" width="10.03" height="21.15"/><path id="Path_344-2" data-name="Path 344-2" class="cls-18" d="M1550.18,1012.55c0,.22-13.27.4-29.63.4s-29.63-.18-29.63-.4,13.26-.4,29.63-.4S1550.18,1012.33,1550.18,1012.55Z" transform="translate(-45.63 -618.06)"/><rect id="Rectangle_183-2" data-name="Rectangle 183-2" class="cls-18" x="1468.69" y="407.23" width="10.03" height="21.15"/><rect id="Rectangle_184-2" data-name="Rectangle 184-2" class="cls-18" x="1468.69" y="449.98" width="10.03" height="21.15"/><path id="Path_345-2" data-name="Path 345-2" class="cls-18" d="M1550.18,1054.74c0,.23-13.27.4-29.63.4s-29.63-.18-29.63-.4,13.26-.4,29.63-.4S1550.18,1054.52,1550.18,1054.74Z" transform="translate(-45.63 -618.06)"/><rect id="Rectangle_185-2" data-name="Rectangle 185-2" class="cls-19" x="1408.92" y="237.12" width="10.03" height="21.15"/><path id="Path_346-2" data-name="Path 346-2" class="cls-18" d="M1490.41,884.64c0,.22-13.27.4-29.63.4s-29.63-.18-29.63-.4,13.27-.4,29.63-.4S1490.41,884.41,1490.41,884.64Z" transform="translate(-45.63 -618.06)"/><rect id="Rectangle_186-2" data-name="Rectangle 186-2" class="cls-19" x="1408.92" y="279.76" width="10.03" height="21.15"/><path id="Path_347-2" data-name="Path 347-2" class="cls-18" d="M1490.41,927.27c0,.23-13.27.4-29.63.4s-29.63-.18-29.63-.4,13.27-.4,29.63-.4S1490.41,927.05,1490.41,927.27Z" transform="translate(-45.63 -618.06)"/><rect id="Rectangle_187-2" data-name="Rectangle 187-2" class="cls-19" x="1408.92" y="322.4" width="10.03" height="21.15"/><path id="Path_348-2" data-name="Path 348-2" class="cls-18" d="M1490.41,969.91c0,.22-13.27.4-29.63.4s-29.63-.18-29.63-.4,13.27-.4,29.63-.4S1490.41,969.69,1490.41,969.91Z" transform="translate(-45.63 -618.06)"/><rect id="Rectangle_188-2" data-name="Rectangle 188-2" class="cls-19" x="1408.92" y="365.03" width="10.03" height="21.15"/><path id="Path_349-2" data-name="Path 349-2" class="cls-18" d="M1490.41,1012.55c0,.22-13.27.4-29.63.4s-29.63-.18-29.63-.4,13.27-.4,29.63-.4S1490.41,1012.33,1490.41,1012.55Z" transform="translate(-45.63 -618.06)"/><rect id="Rectangle_189-2" data-name="Rectangle 189-2" class="cls-19" x="1408.92" y="407.67" width="10.03" height="21.15"/><path id="Path_350-2" data-name="Path 350-2" class="cls-18" d="M1490.41,1055.19c0,.22-13.27.4-29.63.4s-29.63-.18-29.63-.4,13.27-.4,29.63-.4S1490.41,1055,1490.41,1055.19Z" transform="translate(-45.63 -618.06)"/><rect id="Rectangle_190-2" data-name="Rectangle 190-2" class="cls-19" x="1408.92" y="450.31" width="10.03" height="21.15"/><rect id="Rectangle_191-2" data-name="Rectangle 191-2" class="cls-16" x="1508.39" y="271.91" width="89.01" height="282.09"/><rect id="Rectangle_192-2" data-name="Rectangle 192-2" class="cls-17" x="1552.89" y="271.91" width="44.51" height="281.31"/><rect id="Rectangle_193" data-name="Rectangle 193" class="cls-16" x="1518.55" y="244.22" width="31.43" height="27.69"/><rect id="Rectangle_194" data-name="Rectangle 194" class="cls-17" x="1542.49" y="244.22" width="7.49" height="27.69"/><rect id="Rectangle_195-2" data-name="Rectangle 195-2" class="cls-19" x="1525.96" y="283.99" width="7.53" height="15.89"/><path id="Path_352-2" data-name="Path 352-2" class="cls-18" d="M1598.52,924.17c0,.17-10,.3-22.25.3s-22.26-.14-22.26-.3,10-.3,22.26-.3S1598.52,924,1598.52,924.17Z" transform="translate(-45.63 -618.06)"/><rect id="Rectangle_196-2" data-name="Rectangle 196-2" class="cls-18" x="1570.85" y="283.99" width="7.53" height="15.89"/><path id="Path_353-2" data-name="Path 353-2" class="cls-18" d="M1643.41,924.17c0,.17-10,.3-22.25.3s-22.26-.14-22.26-.3,10-.3,22.26-.3S1643.41,924,1643.41,924.17Z" transform="translate(-45.63 -618.06)"/><rect id="Rectangle_197-2" data-name="Rectangle 197-2" class="cls-18" x="1570.85" y="315.53" width="7.53" height="15.89"/><path id="Path_354-2" data-name="Path 354-2" class="cls-18" d="M1643.41,955.71c0,.17-10,.3-22.25.3s-22.26-.13-22.26-.3,10-.3,22.26-.3S1643.41,955.54,1643.41,955.71Z" transform="translate(-45.63 -618.06)"/><rect id="Rectangle_198-2" data-name="Rectangle 198-2" class="cls-18" x="1570.85" y="348.02" width="7.53" height="15.89"/><path id="Path_355-2" data-name="Path 355-2" class="cls-18" d="M1643.41,988.2c0,.17-10,.3-22.25.3s-22.26-.13-22.26-.3,10-.3,22.26-.3S1643.41,988,1643.41,988.2Z" transform="translate(-45.63 -618.06)"/><rect id="Rectangle_199-2" data-name="Rectangle 199-2" class="cls-18" x="1570.85" y="380.51" width="7.53" height="15.89"/><path id="Path_356-2" data-name="Path 356-2" class="cls-18" d="M1643.41,1020.7c0,.16-10,.3-22.25.3s-22.26-.14-22.26-.3,10-.3,22.26-.3S1643.41,1020.53,1643.41,1020.7Z" transform="translate(-45.63 -618.06)"/><rect id="Rectangle_200-2" data-name="Rectangle 200-2" class="cls-18" x="1570.85" y="412.08" width="7.53" height="15.89"/><path id="Path_357-2" data-name="Path 357-2" class="cls-18" d="M1643.41,1052.26c0,.17-10,.3-22.25.3s-22.26-.14-22.26-.3,10-.3,22.26-.3S1643.41,1052.09,1643.41,1052.26Z" transform="translate(-45.63 -618.06)"/><rect id="Rectangle_201-2" data-name="Rectangle 201-2" class="cls-18" x="1570.85" y="443.77" width="7.53" height="15.89"/><rect id="Rectangle_202-2" data-name="Rectangle 202-2" class="cls-18" x="1570.85" y="475.88" width="7.53" height="15.89"/><path id="Path_358-2" data-name="Path 358-2" class="cls-18" d="M1643.41,1084c0,.17-10,.3-22.25.3s-22.26-.13-22.26-.3,10-.3,22.26-.3S1643.41,1083.78,1643.41,1084Z" transform="translate(-45.63 -618.06)"/><rect id="Rectangle_203-2" data-name="Rectangle 203-2" class="cls-19" x="1525.96" y="316.01" width="7.53" height="15.89"/><path id="Path_359-2" data-name="Path 359-2" class="cls-18" d="M1598.52,956.19c0,.17-10,.3-22.25.3s-22.26-.13-22.26-.3,10-.3,22.26-.3S1598.52,956,1598.52,956.19Z" transform="translate(-45.63 -618.06)"/><rect id="Rectangle_204-2" data-name="Rectangle 204-2" class="cls-19" x="1525.96" y="348.03" width="7.53" height="15.89"/><path id="Path_360-2" data-name="Path 360-2" class="cls-18" d="M1598.52,988.22c0,.16-10,.3-22.25.3s-22.26-.14-22.26-.3,10-.3,22.26-.3S1598.52,988.05,1598.52,988.22Z" transform="translate(-45.63 -618.06)"/><rect id="Rectangle_205-2" data-name="Rectangle 205-2" class="cls-19" x="1525.96" y="380.06" width="7.53" height="15.89"/><path id="Path_361-2" data-name="Path 361-2" class="cls-18" d="M1598.52,1020.24c0,.17-10,.3-22.25.3s-22.26-.14-22.26-.3,10-.3,22.26-.3S1598.52,1020.07,1598.52,1020.24Z" transform="translate(-45.63 -618.06)"/><rect id="Rectangle_206-2" data-name="Rectangle 206-2" class="cls-19" x="1525.96" y="412.08" width="7.53" height="15.89"/><path id="Path_362-2" data-name="Path 362-2" class="cls-18" d="M1598.52,1052.26c0,.17-10,.3-22.25.3s-22.26-.14-22.26-.3,10-.3,22.26-.3S1598.52,1052.09,1598.52,1052.26Z" transform="translate(-45.63 -618.06)"/><rect id="Rectangle_207-2" data-name="Rectangle 207-2" class="cls-19" x="1525.96" y="444.1" width="7.53" height="15.89"/><path id="Path_363-2" data-name="Path 363-2" class="cls-18" d="M1598.52,1084.28c0,.17-10,.3-22.25.3s-22.26-.13-22.26-.3,10-.3,22.26-.3S1598.52,1084.12,1598.52,1084.28Z" transform="translate(-45.63 -618.06)"/><rect id="Rectangle_208-2" data-name="Rectangle 208-2" class="cls-19" x="1525.96" y="476.12" width="7.53" height="15.89"/><path id="Path_364-2" data-name="Path 364-2" class="cls-17" d="M1436.35,1172.06H1314.81L1314.28,980h121.54Z" transform="translate(-45.63 -618.06)"/><rect id="Rectangle_209-2" data-name="Rectangle 209-2" class="cls-18" x="1329.42" y="361.91" width="60.77" height="192.09"/><rect id="Rectangle_212-2" data-name="Rectangle 212-2" class="cls-18" x="1258.52" y="359.71" width="135.23" height="2.21"/><rect id="Rectangle_214-2" data-name="Rectangle 214-2" class="cls-16" x="1353.94" y="378.41" width="10.29" height="21.69"/><path id="Path_366-2" data-name="Path 366-2" class="cls-17" d="M1436.35,1026.67c0,.23-13.6.42-30.39.42s-30.38-.19-30.38-.42,13.6-.41,30.38-.41S1436.35,1026.44,1436.35,1026.67Z" transform="translate(-45.63 -618.06)"/><rect id="Rectangle_215-2" data-name="Rectangle 215-2" class="cls-16" x="1353.94" y="421.47" width="10.29" height="21.69"/><path id="Path_367-2" data-name="Path 367-2" class="cls-17" d="M1436.35,1069.74c0,.23-13.6.41-30.39.41s-30.38-.18-30.38-.41,13.6-.41,30.38-.41S1436.35,1069.51,1436.35,1069.74Z" transform="translate(-45.63 -618.06)"/><rect id="Rectangle_216-2" data-name="Rectangle 216-2" class="cls-16" x="1353.94" y="465.84" width="10.29" height="21.69"/><path id="Path_368-2" data-name="Path 368-2" class="cls-17" d="M1436.35,1114.11c0,.23-13.6.41-30.39.41s-30.38-.18-30.38-.41,13.6-.41,30.38-.41S1436.35,1113.88,1436.35,1114.11Z" transform="translate(-45.63 -618.06)"/><rect id="Rectangle_217-2" data-name="Rectangle 217-2" class="cls-16" x="1353.94" y="510.21" width="10.29" height="21.69"/><path id="Path_369-2" data-name="Path 369-2" class="cls-17" d="M1436.35,1158.48c0,.23-13.6.41-30.39.41s-30.38-.18-30.38-.41,13.6-.42,30.38-.42S1436.35,1158.25,1436.35,1158.48Z" transform="translate(-45.63 -618.06)"/></g><g id="Group_16405" data-name="Group 16405" class="cls-21"><path id="Path_74308" data-name="Path 74308" class="cls-22" d="M1176.34,878c115.33-2.52,149.3-9.15,148.2-36.53-1.74-43.34-55.39-21.14-33.18,1.7-11.6-20.6,26.32-39.15,29.26.53C1322.79,872.88,1189.18,877.06,1176.34,878Z" transform="translate(-45.63 -618.06)"/><path id="Path_74309" data-name="Path 74309" class="cls-22" d="M1287.15,877.94c79.32-19.74,103.86-21.68,108.56-3.42,7.44,28.88-33.65,24.21-23,5-3.82,15.73,25.79,20.92,19.9-5.78C1388.26,854.12,1296.1,876.16,1287.15,877.94Z" transform="translate(-45.63 -618.06)"/></g><g id="Group_16406" data-name="Group 16406" class="cls-21"><path id="Path_74308-2" data-name="Path 74308-2" class="cls-22" d="M911.1,776.32c115.32-2.52,149.29-9.15,148.2-36.53-1.75-43.33-55.39-21.14-33.19,1.7-11.59-20.6,26.33-39.15,29.27.53C1057.55,771.22,923.94,775.4,911.1,776.32Z" transform="translate(-45.63 -618.06)"/><path id="Path_74309-2" data-name="Path 74309-2" class="cls-22" d="M1021.91,776.29c79.32-19.75,103.85-21.69,108.56-3.43,7.44,28.89-33.65,24.21-23,5-3.82,15.72,25.79,20.91,19.9-5.79C1123,752.47,1030.86,774.51,1021.91,776.29Z" transform="translate(-45.63 -618.06)"/></g><g id="Group_16419" data-name="Group 16419"><path id="Path_72909" data-name="Path 72909" class="cls-20" d="M1051.25,1145l6.75-7.54,5.45,5.84-6.79,7.17Z" transform="translate(-45.63 -618.06)"/><path id="Path_72910" data-name="Path 72910" d="M1056.66,1150.46l5.5,15a2.25,2.25,0,0,1-1,2.61h0l-17.13-18.15,7.2-4.9Z" transform="translate(-45.63 -618.06)"/><path id="Path_72911" data-name="Path 72911" class="cls-20" d="M1044.05,1149.89l-1.3,1.19,15.93,16.55a2.11,2.11,0,0,0,2.5.42h0Z" transform="translate(-45.63 -618.06)"/><line id="Line_123" data-name="Line 123" class="cls-23" x1="1013.23" y1="537.72" x2="1011.21" y2="537.57"/><line id="Line_124" data-name="Line 124" class="cls-23" x1="1014.02" y1="539.67" x2="1011.84" y2="539.5"/><line id="Line_125" data-name="Line 125" class="cls-23" x1="1014.73" y1="541.75" x2="1012.36" y2="541.58"/><path id="Path_72912" data-name="Path 72912" class="cls-24" d="M1062.48,1150l-10.79-10,24.16-29.52,3-23.14,11.22,2.14.45,27.62Z" transform="translate(-45.63 -618.06)"/><path id="Path_72913" data-name="Path 72913" d="M1073,1113.69l4.77,17.82,6-6.67Z" transform="translate(-45.63 -618.06)"/><path id="Path_72914" data-name="Path 72914" class="cls-20" d="M1095.24,1161.74l-3.78-9.39,7.66-2.3,3.41,9.26Z" transform="translate(-45.63 -618.06)"/><path id="Path_72915" data-name="Path 72915" d="M1102.53,1159.32l15.87,1.7a2.25,2.25,0,0,1,1.9,2h0l-23.86,7.31-1.21-8.63Z" transform="translate(-45.63 -618.06)"/><path id="Path_72916" data-name="Path 72916" class="cls-20" d="M1096.44,1170.37l.49,1.69,21.9-6.94a2.13,2.13,0,0,0,1.47-2.06h0Z" transform="translate(-45.63 -618.06)"/><line id="Line_126" data-name="Line 126" class="cls-23" x1="1062.64" y1="541.64" x2="1061.61" y2="543.38"/><line id="Line_127" data-name="Line 127" class="cls-23" x1="1064.74" y1="541.79" x2="1063.63" y2="543.68"/><line id="Line_128" data-name="Line 128" class="cls-23" x1="1066.93" y1="542.09" x2="1065.72" y2="544.13"/><path id="Path_72917" data-name="Path 72917" class="cls-24" d="M1066,1089.49s-1.43,10.3,4.4,18.81l8.92,17,10.67,32,14.38-4-9.45-32.42a14.15,14.15,0,0,0-1.32-3.43l-12-28Z" transform="translate(-45.63 -618.06)"/><line id="Line_129" data-name="Line 129" class="cls-25" x1="1044.55" y1="492.21" x2="1038.41" y2="478.38"/><path id="Path_72918" data-name="Path 72918" class="cls-26" d="M1076.54,1046.56a38.76,38.76,0,0,0-8.23,2.45c-1.85.94-1.73,3.35-1.5,5.42l-.77,31.93,24-.22.85-31.46a6.42,6.42,0,0,0-4.3-6.46c-2.54-.92-4.07-1.92-5.7-2Z" transform="translate(-45.63 -618.06)"/><path id="Path_72919" data-name="Path 72919" class="cls-26" d="M1087.36,1048.55s7.62,3.43,7.85,11.22h-9.55Z" transform="translate(-45.63 -618.06)"/><path id="Path_72920" data-name="Path 72920" class="cls-27" d="M1085,1047.59l-4-1.92-4.07.71-2.62.66a7.41,7.41,0,0,0,6.84,3.46C1085.87,1050.22,1085,1047.59,1085,1047.59Z" transform="translate(-45.63 -618.06)"/><rect id="Rectangle_9219" data-name="Rectangle 9219" x="1020.41" y="468.08" width="23.98" height="3.36"/><rect id="Rectangle_9220" data-name="Rectangle 9220" class="cls-28" x="1034.16" y="468.08" width="5.92" height="3.36"/><rect id="Rectangle_9221" data-name="Rectangle 9221" class="cls-20" x="1027.68" y="439.43" width="4.43" height="1.54"/><path id="Path_72921" data-name="Path 72921" class="cls-27" d="M1070.27,1061.08l-8,14.83a3.85,3.85,0,0,1-4.41,2.2h0a3.85,3.85,0,0,1-2.87-4.64,4.13,4.13,0,0,1,.15-.5l8.36-18a4.43,4.43,0,0,1,5.5-2.62h0S1071.33,1058.68,1070.27,1061.08Z" transform="translate(-45.63 -618.06)"/><path id="Path_72922" data-name="Path 72922" class="cls-26" d="M1068.31,1049s-4.76,1.45-9.84,13.13l9.62,5.36,4.79-7.22Z" transform="translate(-45.63 -618.06)"/><path id="Path_72923" data-name="Path 72923" class="cls-25" d="M1067.17,1067l.92.51,3.45-5.21" transform="translate(-45.63 -618.06)"/><path id="Path_72924" data-name="Path 72924" class="cls-27" d="M1074.71,1090.12s.67-2.23,3.49-1.47l4.38,1.08a.66.66,0,0,1,.47.82.19.19,0,0,1,0,.07h0a.66.66,0,0,1-.62.42l-2.33,0,4.82,3.38a.73.73,0,0,1,.22,1l-.07.09h0a.73.73,0,0,1-.91.14l-3.39-2.07-.16.13,3.2,2.64a.71.71,0,0,1,0,1l-.09.08h0a.71.71,0,0,1-.88-.08l-3.32-2.46-.21.14,2.56,2.65c.69.72.4,1.14.14,1.33h0c-.24.18-.83-.39-1-.62l-2.9-2.65-.2.12,2.32,2.6a.5.5,0,0,1-.19.68l-.1,0h0a.5.5,0,0,1-.57-.23l-2.81-2.9s-3.5-3.46-2.83-5.36Z" transform="translate(-45.63 -618.06)"/><path id="Path_72925" data-name="Path 72925" class="cls-27" d="M1055,1077.64l18.85,14.61,2.62-3.62-15.15-15.55Z" transform="translate(-45.63 -618.06)"/><line id="Line_130" data-name="Line 130" class="cls-29" x1="1019.19" y1="453.17" x2="1015.45" y2="452.66"/><path id="Path_72926" data-name="Path 72926" d="M1089.4,1025.52s.69,2.23-1,6.46l-.76-7.64Z" transform="translate(-45.63 -618.06)"/><path id="Path_72927" data-name="Path 72927" d="M1076.18,1034.73l1,2.76.15-3.11Z" transform="translate(-45.63 -618.06)"/><path id="Path_72928" data-name="Path 72928" class="cls-30" d="M1085.93,1034.87a6.88,6.88,0,0,1,.5-2.5c.43-1.1.87-2.1,2.11-1.68,2.49.83.56,4.53-1.46,5a.91.91,0,0,1-1.12-.62,1.06,1.06,0,0,1,0-.19Z" transform="translate(-45.63 -618.06)"/><path id="Path_72929" data-name="Path 72929" class="cls-27" d="M1077.21,1034.38l-.86,14.41,7.59.2-.44-12.13Z" transform="translate(-45.63 -618.06)"/><path id="Path_72930" data-name="Path 72930" class="cls-30" d="M1083.77,1044.62l-5-5.62,4.78-.46Z" transform="translate(-45.63 -618.06)"/><path id="Path_72931" data-name="Path 72931" class="cls-27" d="M1088.82,1025.84l-.25,8.9s0,5.5-4.48,5.7c-5.14.23-7.19-2.19-6.87-4.85l.29-10a3.4,3.4,0,0,1,3.62-3.18h0l4.17.11A3.43,3.43,0,0,1,1088.82,1025.84Z" transform="translate(-45.63 -618.06)"/><path id="Path_72932" data-name="Path 72932" class="cls-20" d="M1081.94,1030.09s1.5-.11,1.6.62-1.69.71-1.69.71-1.55.14-1.61-.55S1081.94,1030.09,1081.94,1030.09Z" transform="translate(-45.63 -618.06)"/><path id="Path_72933" data-name="Path 72933" class="cls-31" d="M1081.21,1030.8a.94.94,0,1,0,1-.87h-.13A.87.87,0,0,0,1081.21,1030.8Z" transform="translate(-45.63 -618.06)"/><path id="Path_72934" data-name="Path 72934" class="cls-20" d="M1081.94,1030.09s1.5-.11,1.6.62-1.69.71-1.69.71-1.55.14-1.61-.55S1081.94,1030.09,1081.94,1030.09Z" transform="translate(-45.63 -618.06)"/><path id="Path_72935" data-name="Path 72935" class="cls-20" d="M1087.05,1030.15s-1.16-.09-1.24.61,1.29.69,1.29.69,1.2.08,1.26-.58S1087.05,1030.15,1087.05,1030.15Z" transform="translate(-45.63 -618.06)"/><path id="Path_72936" data-name="Path 72936" class="cls-31" d="M1087.84,1030.82a.76.76,0,0,1-.82.7.77.77,0,0,1-.7-.82.76.76,0,0,1,1.52.11Z" transform="translate(-45.63 -618.06)"/><path id="Path_72937" data-name="Path 72937" class="cls-20" d="M1087.05,1030.15s-1.16-.09-1.24.61,1.29.69,1.29.69,1.2.08,1.26-.58S1087.05,1030.15,1087.05,1030.15Z" transform="translate(-45.63 -618.06)"/><path id="Path_72938" data-name="Path 72938" d="M1079.94,1028.63l3,0a.8.8,0,0,0,.88-.71v-.07h0a.81.81,0,0,0-.75-.8l-3,.25a.65.65,0,0,0-.7.6h0A.66.66,0,0,0,1079.94,1028.63Z" transform="translate(-45.63 -618.06)"/><path id="Path_72939" data-name="Path 72939" d="M1088.56,1028.77l-1.74,0a.67.67,0,0,1-.74-.59.49.49,0,0,1,0-.17h0a.88.88,0,0,1,.42-.71.71.71,0,0,1,.45-.07l1.59.29c.34.09.58.22.59.58h0A.72.72,0,0,1,1088.56,1028.77Z" transform="translate(-45.63 -618.06)"/><path id="Path_72940" data-name="Path 72940" class="cls-32" d="M1085.5,1032.21l.5,1.8-1,.38" transform="translate(-45.63 -618.06)"/><path id="Path_72941" data-name="Path 72941" class="cls-32" d="M1086.24,1035.7a4.28,4.28,0,0,1-3.4,0" transform="translate(-45.63 -618.06)"/><path id="Path_72942" data-name="Path 72942" d="M1077.82,1032.89v-6.17a3,3,0,0,1,1.38-2.58,2.42,2.42,0,0,1,1.34-.37c1.76.05,7.1,2.93,7.82-.84l-6-1.89s-3-1.72-5.2.31c-2.5,2.25-3.65,5.21-1.2,11.3Z" transform="translate(-45.63 -618.06)"/><path id="Path_72943" data-name="Path 72943" class="cls-27" d="M1077.76,1035a7.16,7.16,0,0,0-.36-2.52c-.38-1.12-1-2.21-2.26-1.8-3.08,1-.57,4.5,1.43,5.06a.9.9,0,0,0,1.15-.55,1.8,1.8,0,0,0,0-.19Z" transform="translate(-45.63 -618.06)"/><path id="Path_72944" data-name="Path 72944" class="cls-32" d="M1076.91,1033.87s-.84-1.52-1.93-1.35" transform="translate(-45.63 -618.06)"/><path id="Rectangle_9225" data-name="Rectangle 9225" class="cls-26" d="M1081.93,1018.34h.28a7.19,7.19,0,0,1,7.19,7.18h-14.65A7.18,7.18,0,0,1,1081.93,1018.34Z" transform="translate(-45.63 -618.06)"/><path id="Path_72945" data-name="Path 72945" class="cls-33" d="M1074.75,1025.52s16.71-5.64,19.45-3c1.31,1.27-4.8,3-4.8,3Z" transform="translate(-45.63 -618.06)"/></g><g id="Group_16404" data-name="Group 16404"><ellipse id="Ellipse_580" data-name="Ellipse 580" class="cls-3" cx="588.49" cy="1128.47" rx="40.55" ry="41.02" transform="translate(-673.88 137.18) rotate(-45.41)"/><ellipse id="Ellipse_581" data-name="Ellipse 581" class="cls-3" cx="412.59" cy="1128.47" rx="40.55" ry="41.02" transform="translate(-726.28 11.93) rotate(-45.41)"/><ellipse id="Ellipse_582" data-name="Ellipse 582" class="cls-3" cx="263.13" cy="1128.47" rx="40.55" ry="41.02" transform="translate(-770.81 -94.5) rotate(-45.41)"/><ellipse id="Ellipse_583" data-name="Ellipse 583" class="cls-3" cx="500.54" cy="1128.47" rx="40.55" ry="41.02" transform="translate(-700.08 74.55) rotate(-45.41)"/><path id="Path_72987" data-name="Path 72987" class="cls-2" d="M610.86,1075.72h-235c-17.68,0-27.08,38.1-31,47.56l1.46-.08,15.61,0c13.47-1.56,9.39-30.79,26.6-30.79h75l59.74-.4v.4h75c17.21,0,13.13,29.23,26.6,30.79l15.61,0,1.47.08C637.94,1113.82,628.54,1075.72,610.86,1075.72Z" transform="translate(-45.63 -618.06)"/><path id="Path_72988" data-name="Path 72988" class="cls-3" d="M603.08,1148.25H92.34v-56.48H628v13.1l-24.89.4Z" transform="translate(-45.63 -618.06)"/><path id="Path_72989" data-name="Path 72989" class="cls-34" d="M628,1104.88v-13.1H506.28l8.77,13.1Z" transform="translate(-45.63 -618.06)"/><ellipse id="Ellipse_584" data-name="Ellipse 584" class="cls-3" cx="464.84" cy="1128.47" rx="40.55" ry="41.02" transform="translate(-710.72 49.13) rotate(-45.41)"/><ellipse id="Ellipse_585" data-name="Ellipse 585" class="cls-20" cx="464.84" cy="1128.45" rx="20" ry="20.23" transform="translate(-710.7 49.13) rotate(-45.41)"/><ellipse id="Ellipse_586" data-name="Ellipse 586" class="cls-35" cx="464.84" cy="1128.45" rx="28.79" ry="29.12" transform="translate(-710.7 49.13) rotate(-45.41)"/><ellipse id="Ellipse_587" data-name="Ellipse 587" class="cls-3" cx="288.94" cy="1128.47" rx="40.55" ry="41.02" transform="translate(-763.12 -76.12) rotate(-45.41)"/><ellipse id="Ellipse_588" data-name="Ellipse 588" class="cls-20" cx="288.95" cy="1128.44" rx="20" ry="20.23" transform="translate(-763.44 -75.53) rotate(-45.44)"/><ellipse id="Ellipse_589" data-name="Ellipse 589" class="cls-35" cx="288.94" cy="1128.46" rx="28.79" ry="29.12" transform="translate(-763.11 -76.13) rotate(-45.41)"/><ellipse id="Ellipse_590" data-name="Ellipse 590" class="cls-3" cx="376.89" cy="1128.47" rx="40.55" ry="41.02" transform="translate(-736.92 -13.5) rotate(-45.41)"/><ellipse id="Ellipse_591" data-name="Ellipse 591" class="cls-20" cx="376.89" cy="1128.45" rx="20" ry="20.23" transform="translate(-736.91 -13.5) rotate(-45.41)"/><ellipse id="Ellipse_592" data-name="Ellipse 592" class="cls-35" cx="376.89" cy="1128.46" rx="28.79" ry="29.12" transform="translate(-736.91 -13.5) rotate(-45.41)"/><ellipse id="Ellipse_593" data-name="Ellipse 593" class="cls-3" cx="186.65" cy="1128.47" rx="40.55" ry="41.02" transform="translate(-793.59 -148.96) rotate(-45.41)"/><ellipse id="Ellipse_594" data-name="Ellipse 594" class="cls-20" cx="186.66" cy="1128.45" rx="20" ry="20.23" transform="translate(-793.58 -148.96) rotate(-45.41)"/><ellipse id="Ellipse_595" data-name="Ellipse 595" class="cls-35" cx="186.65" cy="1128.46" rx="28.79" ry="29.12" transform="translate(-793.58 -148.97) rotate(-45.41)"/><rect id="Rectangle_9229" data-name="Rectangle 9229" class="cls-3" x="172.99" y="347.74" width="105.31" height="125.97"/><path id="Path_72990" data-name="Path 72990" class="cls-36" d="M218.62,1091.93s-52.16.5-60.36.5c-17.21,0-13.14,29.23-26.6,30.79a11.07,11.07,0,0,1-1.15.06H86.64v-48.14c0-7.29,8-24.42,17.88-42.74l.21-.39c12.2-22.75,27.08-47.21,32.66-56.83.93-1.61,1.6-2.82,2-3.51,4.15-8.21,68.63-7.4,75.08-6.23C220.66,966.57,218.67,1083.43,218.62,1091.93Z" transform="translate(-45.63 -618.06)"/><path id="Path_72991" data-name="Path 72991" class="cls-34" d="M102.7,1093.11s-2.14,12.79-4.29,12.79H86.64v-12.79Z" transform="translate(-45.63 -618.06)"/><path id="Path_72992" data-name="Path 72992" class="cls-4" d="M86.64,1108.59h14.73c2.83,0,5.65-18.18,5.65-18.18H86.64" transform="translate(-45.63 -618.06)"/><path id="Path_72993" data-name="Path 72993" class="cls-34" d="M210.78,1075.72v-61.84s10.46-2.74,13.83,0v61.84Z" transform="translate(-45.63 -618.06)"/><path id="Path_72994" data-name="Path 72994" class="cls-34" d="M214.55,1017.39s-1.64-58-1.4-64.78,6.91-10.55,18.7-10.55l-.22,6.16s-11.37-.59-11.59,5.27.13,63.9.13,63.9Z" transform="translate(-45.63 -618.06)"/><path id="Path_72995" data-name="Path 72995" class="cls-4" d="M214.43,1013.13a12.37,12.37,0,0,1,5.73-.46" transform="translate(-45.63 -618.06)"/><path id="Path_72996" data-name="Path 72996" class="cls-34" d="M86.09,1129.1h54.25c3.52,0-2.34,31.65-5.28,32.82s-45.06,0-47.82,0C85.63,1161.92,86.09,1129.1,86.09,1129.1Z" transform="translate(-45.63 -618.06)"/><path id="Path_72997" data-name="Path 72997" class="cls-4" d="M120.2,1129.1c3.51,0-2.35,31.65-5.28,32.82" transform="translate(-45.63 -618.06)"/><rect id="Rectangle_9230" data-name="Rectangle 9230" class="cls-2" x="39.81" y="522.58" width="13.82" height="9.56"/><path id="Path_72998" data-name="Path 72998" class="cls-37" d="M233.57,1091.94v.48h-75c-17.21,0-13.14,29.24-26.6,30.8l-15.61,0-1.47.08c3.93-9.46,13.33-47.56,31-47.56h83.16C233.54,1075.72,233.57,1079.72,233.57,1091.94Z" transform="translate(-45.63 -618.06)"/><path id="Path_72999" data-name="Path 72999" class="cls-3" d="M191.24,975.18v45.74s-11.47-.28-22.27-.46c-4-.05-7.85-.1-11-.12h-2.7c-8.63,0-17,4-21.9,7.46a23.77,23.77,0,0,0-3.07,2.5c-1.66,1.66-6.78,2.1-11.71,2.1h-.25c-3.49,0-7.94-.23-13.6-.38,12.2-22.75,27.08-47.21,32.66-56.83Z" transform="translate(-45.63 -618.06)"/><path id="Path_73000" data-name="Path 73000" class="cls-20" d="M191.24,975.18v5.75a18.11,18.11,0,0,1-3.1,3.88c-7.16,6.28-17.83,7.44-17,23.15.17,3.46-.69,7.82-2.12,12.51-4-.06-7.85-.11-11-.14,2-5,3.36-9.61,3.34-12.93-.1-13.61,11.93-18.18,16.93-24.49a33.55,33.55,0,0,0,3.77-7.73Z" transform="translate(-45.63 -618.06)"/><path id="Path_73001" data-name="Path 73001" class="cls-20" d="M160.11,975.18a12,12,0,0,1-1.75,2c-7.18,6.29-17.83,7.45-17.09,23.15.36,7-3.54,17.79-7.93,27.52a22.87,22.87,0,0,0-3.06,2.5c-1.66,1.66-6.78,2.1-11.71,2.1h-.24c6.17-11,13.17-25.09,13.12-32.68-.06-13.62,11.94-18.2,16.94-24.49l0-.05Z" transform="translate(-45.63 -618.06)"/><line id="Line_131" data-name="Line 131" class="cls-4" x1="140.34" y1="357.12" x2="140.34" y2="402.74"/><path id="Path_73002" data-name="Path 73002" class="cls-4" d="M107.88,1031.85v43.29a28.86,28.86,0,0,1,16.54-12.6c11.72-3.52,66.82-2.94,66.82-2.94v-38.69" transform="translate(-45.63 -618.06)"/><rect id="Rectangle_9231" data-name="Rectangle 9231" class="cls-20" x="132.2" y="407.93" width="6" height="1.85"/><rect id="Rectangle_9232" data-name="Rectangle 9232" class="cls-3" x="460.66" y="291.63" width="117.7" height="182.09"/><path id="Path_74307" data-name="Path 74307" class="cls-22" d="M246.59,909.69H506.28v182.09H246.59Z" transform="translate(-45.63 -618.06)"/><line id="Line_132" data-name="Line 132" class="cls-4" x1="431.73" y1="299.9" x2="431.73" y2="465.42"/><line id="Line_133" data-name="Line 133" class="cls-4" x1="409.3" y1="299.9" x2="409.3" y2="465.42"/><line id="Line_134" data-name="Line 134" class="cls-4" x1="386.88" y1="299.9" x2="386.88" y2="465.42"/><line id="Line_135" data-name="Line 135" class="cls-4" x1="364.45" y1="299.9" x2="364.45" y2="465.42"/><line id="Line_136" data-name="Line 136" class="cls-4" x1="342.02" y1="299.9" x2="342.02" y2="465.42"/><line id="Line_137" data-name="Line 137" class="cls-4" x1="319.59" y1="299.9" x2="319.59" y2="465.42"/><line id="Line_138" data-name="Line 138" class="cls-4" x1="297.17" y1="299.9" x2="297.17" y2="465.42"/><line id="Line_139" data-name="Line 139" class="cls-4" x1="274.74" y1="299.9" x2="274.74" y2="465.42"/><line id="Line_140" data-name="Line 140" class="cls-4" x1="252.31" y1="299.9" x2="252.31" y2="465.42"/><line id="Line_141" data-name="Line 141" class="cls-4" x1="229.89" y1="299.9" x2="229.89" y2="465.42"/><line id="Line_142" data-name="Line 142" class="cls-4" x1="217.51" y1="291.63" x2="217.51" y2="473.72"/><line id="Line_143" data-name="Line 143" class="cls-4" x1="444.11" y1="299.9" x2="217.51" y2="299.9"/><line id="Line_144" data-name="Line 144" class="cls-4" x1="444.11" y1="465.42" x2="217.51" y2="465.42"/><line id="Line_145" data-name="Line 145" class="cls-4" x1="444.1" y1="291.63" x2="444.1" y2="473.72"/><line id="Line_146" data-name="Line 146" class="cls-4" x1="460.66" y1="299.9" x2="578.36" y2="299.9"/><line id="Line_147" data-name="Line 147" class="cls-4" x1="460.66" y1="465.42" x2="578.36" y2="465.42"/><line id="Line_148" data-name="Line 148" class="cls-4" x1="519.51" y1="299.9" x2="519.51" y2="465.42"/><path id="Path_73003" data-name="Path 73003" class="cls-36" d="M499.49,1075.72h-235c-17.68,0-27.08,38.1-31,47.56l1.46-.08,15.61,0c13.47-1.56,9.39-30.79,26.6-30.79h75l59.74-.4v.4h75c17.21,0,13.13,29.23,26.6,30.79l15.61,0,1.47.08C526.57,1113.82,517.17,1075.72,499.49,1075.72Z" transform="translate(-45.63 -618.06)"/></g><g id="Group_16415" data-name="Group 16415"><g id="Group_16413" data-name="Group 16413"><rect id="Rectangle_9239" data-name="Rectangle 9239" class="cls-3" x="887.58" y="371.22" width="36.1" height="48.69"/><line id="Line_153" data-name="Line 153" class="cls-4" x1="887.58" y1="419.92" x2="923.68" y2="371.22"/><line id="Line_154" data-name="Line 154" class="cls-4" x1="887.58" y1="371.22" x2="923.68" y2="419.92"/><rect id="Rectangle_9241" data-name="Rectangle 9241" class="cls-7" x="891.72" y="363.58" width="54.9" height="53.74"/><rect id="Rectangle_9242" data-name="Rectangle 9242" class="cls-38" x="946.62" y="363.58" width="23.16" height="53.74"/><rect id="Rectangle_9243" data-name="Rectangle 9243" class="cls-10" x="895.79" y="403.11" width="15.02" height="6.1"/><rect id="Rectangle_9244" data-name="Rectangle 9244" class="cls-10" x="910.81" y="363.58" width="13.53" height="23.01"/><rect id="Rectangle_9245" data-name="Rectangle 9245" class="cls-39" x="954.9" y="363.58" width="8.61" height="23.01"/><rect id="Rectangle_9246" data-name="Rectangle 9246" class="cls-8" x="923.96" y="403.78" width="17.22" height="1.71"/><rect id="Rectangle_9247" data-name="Rectangle 9247" class="cls-8" x="931.79" y="400.43" width="9.39" height="1.71"/><rect id="Rectangle_9248" data-name="Rectangle 9248" class="cls-8" x="923.96" y="407.29" width="17.22" height="1.71"/><rect id="Rectangle_9257" data-name="Rectangle 9257" class="cls-11" x="900.28" y="320.36" width="44.15" height="43.22"/><rect id="Rectangle_9258" data-name="Rectangle 9258" class="cls-6" x="944.43" y="320.36" width="18.63" height="43.22"/><path id="Path_73005" data-name="Path 73005" class="cls-6" d="M979.64,974.36l-3.06-4.43-3.06,3.65.89.11v3.72l4.34,0v-3.12Z" transform="translate(-45.63 -618.06)"/><path id="Path_73006" data-name="Path 73006" class="cls-6" d="M986.24,974.36l-3.06-4.43-3.06,3.65.89.11v3.72l4.34,0v-3.12Z" transform="translate(-45.63 -618.06)"/><path id="Path_73007" data-name="Path 73007" class="cls-8" d="M979.41,948.54h-24a2,2,0,0,1-2-2h0a2,2,0,0,1,2-2h24a2,2,0,0,1,2,2h0A2,2,0,0,1,979.41,948.54Z" transform="translate(-45.63 -618.06)"/><rect id="Rectangle_9259" data-name="Rectangle 9259" class="cls-12" x="904.18" y="354.73" width="17.22" height="1.71"/><rect id="Rectangle_9260" data-name="Rectangle 9260" class="cls-12" x="904.18" y="351.38" width="9.39" height="1.71"/><rect id="Rectangle_9261" data-name="Rectangle 9261" class="cls-12" x="904.18" y="358.24" width="17.22" height="1.71"/></g><g id="Group_16412" data-name="Group 16412"><path id="Path_74317" data-name="Path 74317" class="cls-40" d="M1010.28,1159c8.69,3.93,29.26,12.41,2.15,11.59C996.05,1170.13,1010.28,1159,1010.28,1159Z" transform="translate(-45.63 -618.06)"/><path id="Path_74318" data-name="Path 74318" class="cls-40" d="M1003.85,1156.11c4.33,3.55,4.14,5,2.34,7.33-1.11,1.45,9.5,4.5,12.37,2.58-2-3.34-7-9.81-6.72-13.42Z" transform="translate(-45.63 -618.06)"/><path id="Path_74319" data-name="Path 74319" class="cls-40" d="M1011.84,1156a4.65,4.65,0,0,0-1.57-6.39l-.23-.14a5.15,5.15,0,0,0-6.83,1.76,4.65,4.65,0,0,0,1.56,6.39l.24.13A5.13,5.13,0,0,0,1011.84,1156Z" transform="translate(-45.63 -618.06)"/><path id="Path_74320" data-name="Path 74320" class="cls-40" d="M1009.7,1118.38c-.56-3.89-3.6-7.14-6.77-7.26s-5.29,2.92-4.73,6.8,3.6,7.14,6.78,7.27S1010.27,1122.27,1009.7,1118.38Z" transform="translate(-45.63 -618.06)"/><path id="Path_74321" data-name="Path 74321" class="cls-40" d="M1002.5,1153.91c1.28-15.72,2.51-22.72-3.27-35.06l9,1.15s-5.84,19.8,2.81,30.1Z" transform="translate(-45.63 -618.06)"/><path id="Path_74322" data-name="Path 74322" class="cls-40" d="M1011,1078.38c-6.13,20-9.15,23.77-2.79,38l-9-1.08s6-17.61-11.83-32.07Z" transform="translate(-45.63 -618.06)"/><path id="Path_74323" data-name="Path 74323" class="cls-40" d="M919.55,1159.45c7.17,4,24.47,12.75-2,12.36C901.54,1171.57,919.55,1159.45,919.55,1159.45Z" transform="translate(-45.63 -618.06)"/><path id="Path_74324" data-name="Path 74324" class="cls-40" d="M914.28,1157.75c2.3,3.62,1.52,5.16-1,7.73-1.59,1.59,6.42,4.45,9.76,2.28-.38-3.48-2-10.19-.23-14Z" transform="translate(-45.63 -618.06)"/><path id="Path_74325" data-name="Path 74325" class="cls-40" d="M921.13,1157.24c2.24-2.09,2.63-4.84.86-6.14s-5.37-.52-7.61,1.58-2.25,4.71-.49,6S918.89,1159.34,921.13,1157.24Z" transform="translate(-45.63 -618.06)"/><path id="Path_74326" data-name="Path 74326" class="cls-40" d="M912.74,1155.46c7.7-16.56,9.69-24,9-36.72l10.09.2s-13.66,22.32-9.24,32.82Z" transform="translate(-45.63 -618.06)"/><path id="Path_74327" data-name="Path 74327" class="cls-40" d="M933.27,1117.12c1.23-4.13-.33-7.42-3.47-7.36s-6.69,3.45-7.91,7.57.33,7.42,3.47,7.36S932.05,1121.24,933.27,1117.12Z" transform="translate(-45.63 -618.06)"/><path id="Path_74328" data-name="Path 74328" class="cls-40" d="M951.77,1070.66c-4.17,24.43-10.67,41.95-23,52.94l-3.57-8.63c11.63-22.78.5-27.23,1.82-37.92Z" transform="translate(-45.63 -618.06)"/><path id="Path_74329" data-name="Path 74329" class="cls-41" d="M952.37,1160.43c8.53,3.49,29.13,11,1.81,11.16C937.68,1171.69,952.37,1160.43,952.37,1160.43Z" transform="translate(-45.63 -618.06)"/><path id="Path_74330" data-name="Path 74330" class="cls-41" d="M946.09,1158.29c3.92,3.33,3.58,4.75,1.52,7.12-1.27,1.46,9,4.08,12,2.08-1.66-3.2-5.92-9.37-5.21-12.93Z" transform="translate(-45.63 -618.06)"/><path id="Path_74331" data-name="Path 74331" class="cls-41" d="M954.05,1157.84c1.64-2.3,1.16-5.13-1.06-6.34s-5.52-.3-7.16,2a4.21,4.21,0,0,0,.62,5.91,5.11,5.11,0,0,0,.62.41A5.63,5.63,0,0,0,954.05,1157.84Z" transform="translate(-45.63 -618.06)"/><path id="Path_74332" data-name="Path 74332" class="cls-41" d="M945,1156.18c1.93-15.24,1.33-22.06-3.88-33.8l10.22.17s-5.9,20,2.25,29.64Z" transform="translate(-45.63 -618.06)"/><path id="Path_74333" data-name="Path 74333" class="cls-41" d="M981,1159.91c7.64,3.85,25.94,12.14-.83,11.34C964.05,1170.77,981,1159.91,981,1159.91Z" transform="translate(-45.63 -618.06)"/><path id="Path_74334" data-name="Path 74334" class="cls-41" d="M975.43,1157.09c3,3.47,2.83,4.92.38,7.22-1.51,1.42,7.28,4.36,10.62,2.46-.92-3.27-3.7-9.6-2.3-13.13Z" transform="translate(-45.63 -618.06)"/><path id="Path_74335" data-name="Path 74335" class="cls-41" d="M983,1156.91c2.11-2.24,2.24-5.1.3-6.39s-5.43-.42-7.54,1.82-2,5-.1,6.3S980.84,1159.15,983,1156.91Z" transform="translate(-45.63 -618.06)"/><path id="Path_74336" data-name="Path 74336" class="cls-41" d="M873.08,1068.35c7.6,10.6,21.24,13.25,24.4,5.11C898.63,1068.64,882.86,1074.84,873.08,1068.35Z" transform="translate(-45.63 -618.06)"/><path id="Path_74337" data-name="Path 74337" class="cls-41" d="M952.18,1120.87c-.22-3.8-2.95-6.82-6.09-6.76s-5.51,3.19-5.3,7,2.94,6.82,6.09,6.76S952.39,1124.67,952.18,1120.87Z" transform="translate(-45.63 -618.06)"/><path id="Path_74338" data-name="Path 74338" class="cls-41" d="M992.8,1120.11c.68-3.8-1.3-7-4.42-7.11s-6.19,2.87-6.86,6.67,1.3,7,4.42,7.12S992.13,1123.93,992.8,1120.11Z" transform="translate(-45.63 -618.06)"/><path id="Path_74339" data-name="Path 74339" class="cls-41" d="M1049.47,1031.41c.85,0,5.93-6.91,16.43-.65,0,0-.58-7.4,1.7-12.6,0,0-22.72-8.12-26.33-5.56C1039.09,1014.15,1049.47,1031.41,1049.47,1031.41Z" transform="translate(-45.63 -618.06)"/><path id="Path_74340" data-name="Path 74340" class="cls-41" d="M962.05,1064.93c-1.83,15.87-10.58,30.06-18.17,30-11.72-.1-19.79-19.09-19.52-27.86C925.1,1043.81,951.84,1015.13,962.05,1064.93Z" transform="translate(-45.63 -618.06)"/><path id="Path_74341" data-name="Path 74341" class="cls-41" d="M954.47,1078.1c4.38,22.48,4,38.62-4.56,48.75l-6.63-7.94c3.7-21-9.06-25.05-11.5-34.9Z" transform="translate(-45.63 -618.06)"/><g id="Group_16409" data-name="Group 16409"><path id="Path_74342" data-name="Path 74342" class="cls-40" d="M932.09,1085c1,3.08,3,5.65,5.08,8.46C935.29,1090.49,933.31,1087.89,932.09,1085Z" transform="translate(-45.63 -618.06)"/><path id="Path_74343" data-name="Path 74343" class="cls-40" d="M956.67,1162.17a22.49,22.49,0,0,1-2.12-5.18,4.06,4.06,0,0,0-1.46-5.42c-5.43-7.23-3.85-19.44-2.62-25.45l0,0a7.47,7.47,0,0,0,.48-.63c7.48-10.19,7.66-25.87,3.48-47.34l-.24.06c2.93,21.2,1.87,36.56-6,46.22a5,5,0,0,1-.52.6.1.1,0,0,1,0,0,51,51,0,0,0-1.75,15.36c0,.14,0,.28,0,.43a20.17,20.17,0,0,0,3,9.77,4.06,4.06,0,0,1,1.18,5.49,22.09,22.09,0,0,0,1.85,5.28c9,4.24,20.36,10.33-3,9.28-.44,0-.82-.06-1.21-.09,1.19.66,3.19,1.06,6.35,1C977.54,1171.45,965.87,1166,956.67,1162.17Z" transform="translate(-45.63 -618.06)"/></g><path id="Path_74344" data-name="Path 74344" class="cls-41" d="M974.32,1154.92c6.28-15.4,9.74-22.25,7.92-34.34l8.54,1.12s-12.11,19.39-6.8,29.48Z" transform="translate(-45.63 -618.06)"/><path id="Path_74345" data-name="Path 74345" class="cls-41" d="M1006.49,1081c-12.48,19.62-16.31,23.24-14.52,37.19l-8.58-1.05s11.59-17.26-1.53-31.41Z" transform="translate(-45.63 -618.06)"/><path id="Path_74346" data-name="Path 74346" class="cls-41" d="M939.12,1086.33c12.3,7,32.88,16,50.22,5.91l6.43-38.1-18.46-10.86-22.78,6.22Z" transform="translate(-45.63 -618.06)"/><path id="Path_74347" data-name="Path 74347" class="cls-41" d="M985.49,1025.89c29-10,19.52,37.28,36.73,33.85s-1-28.93,6.67-41.65c3.72-6.14,15.29,9.76,17.46,13.55,4.07,7.07-12.65,81.61-50.62,41.15Z" transform="translate(-45.63 -618.06)"/><g id="Group_16410" data-name="Group 16410"><path id="Path_74348" data-name="Path 74348" class="cls-42" d="M1046.35,1031.64c-.44-.76-1.25-2-2.3-3.46,2.28,11.42-13.88,76.17-48.85,42.18l.54,2.43C1033.7,1113.25,1050.42,1038.71,1046.35,1031.64Z" transform="translate(-45.63 -618.06)"/></g><path id="Path_74349" data-name="Path 74349" class="cls-41" d="M1071.18,1029.56c7.2-14.42-17.07-16-16-7.85C1054.6,1031.94,1068.34,1035.25,1071.18,1029.56Z" transform="translate(-45.63 -618.06)"/><path id="Path_74350" data-name="Path 74350" class="cls-41" d="M1054.89,1027.74c1.19-4.49,3.35-10.72-2-13.58-14.22-8-25.83-2.25-21.9,8.75C1033.18,1037.27,1052.59,1036.48,1054.89,1027.74Z" transform="translate(-45.63 -618.06)"/><path id="Path_74351" data-name="Path 74351" class="cls-41" d="M973.18,1058.2c-6-9.85-7.9-21.21-1-25.44s17.39.34,23.4,10.18,5.28,21.25-1.63,25.47S979.19,1068,973.18,1058.2Z" transform="translate(-45.63 -618.06)"/><path id="Path_74352" data-name="Path 74352" class="cls-41" d="M1006.71,1080.44c3.15-8.49.47-15.51-6.54-18.11s-15.26,2.18-18.4,10.67,0,17.48,7,20.07S1003.57,1088.93,1006.71,1080.44Z" transform="translate(-45.63 -618.06)"/><path id="Path_74353" data-name="Path 74353" class="cls-41" d="M1071,1015.86l-13.78-1.07,5.25,3.61,8.67,2.09Z" transform="translate(-45.63 -618.06)"/><path id="Path_74354" data-name="Path 74354" class="cls-43" d="M1071.1,1020.49l-5.51-1.11.32-1.38,5-2.14Z" transform="translate(-45.63 -618.06)"/><path id="Path_74355" data-name="Path 74355" class="cls-41" d="M1074.13,1027.62c0-.78-1.35-1.46-3.1-1.52s-3.17.52-3.2,1.3,1.36,1.46,3.1,1.52S1074.1,1028.4,1074.13,1027.62Z" transform="translate(-45.63 -618.06)"/><path id="Path_74356" data-name="Path 74356" class="cls-41" d="M1075.51,1022.81c-.19-.77-1.63-1.08-3.22-.69s-2.73,1.33-2.55,2.1,1.63,1.08,3.23.69S1075.69,1023.58,1075.51,1022.81Z" transform="translate(-45.63 -618.06)"/><path id="Path_74357" data-name="Path 74357" class="cls-44" d="M1073.25,1024.69c-3.63,1-6.22.74-8.72-2,0,0,1.21,5.1,8.22,3.61Z" transform="translate(-45.63 -618.06)"/><path id="Path_74358" data-name="Path 74358" class="cls-41" d="M1033,1013.5c-2.87-2.47-1.85-5.23-3.37-5.11-1.36.11-3.92,6-3.15,9.16,1.34,5.53,8,12.22,10.6,8.34C1040.07,1023.37,1036.48,1017.67,1033,1013.5Z" transform="translate(-45.63 -618.06)"/><g id="Group_16411" data-name="Group 16411"><path id="Path_74359" data-name="Path 74359" class="cls-41" d="M895.28,1072.33l.06,1.09c19.35-1.58,33.55-16.69,37.44-26.92l-.87-.43C928.11,1056.05,914.23,1070.79,895.28,1072.33Z" transform="translate(-45.63 -618.06)"/></g><path id="Path_74360" data-name="Path 74360" class="cls-45" d="M1048.27,1019.46l-.37,0c.34,5.38-4,3.81-6.42.81l-.3,0C1043.48,1024.23,1049.48,1027,1048.27,1019.46Z" transform="translate(-45.63 -618.06)"/><path id="Path_74361" data-name="Path 74361" class="cls-41" d="M985.7,1014.4c-7.22,4.32-6.18,17.6-19.72,19.43-8.62,1.16-6.84-16.57-16.71-13.77-16.19,6.82-32.87,47.57-5.26,49.94,15.65,1.35,22.79-6.44,24.27-16,2.33,7.22,8.2,11,19.07,11.17C1024.27,1065.86,1006.2,1009.36,985.7,1014.4Z" transform="translate(-45.63 -618.06)"/><path id="Path_74362" data-name="Path 74362" class="cls-46" d="M960.55,1030.11l-1.33-1.4-13.63,20.38,4.82,1.21Z" transform="translate(-45.63 -618.06)"/><path id="Path_74363" data-name="Path 74363" class="cls-46" d="M975.59,1028.65l-1.15,1.32,7.68,21.94,3.82-3.19Z" transform="translate(-45.63 -618.06)"/><path id="Path_74364" data-name="Path 74364" class="cls-47" d="M959.51,1165.71c-3,.07,3.18,4,2.85,4.51l3.34-.39S961,1165.67,959.51,1165.71Z" transform="translate(-45.63 -618.06)"/><path id="Path_74365" data-name="Path 74365" class="cls-42" d="M1029.68,1021.09c-2-4.83-1.45-9.42,0-9s1.82,3.47,3.2,4.51S1029.68,1021.09,1029.68,1021.09Z" transform="translate(-45.63 -618.06)"/><path id="Path_74366" data-name="Path 74366" class="cls-48" d="M999.13,1044.56l-60,8.21,5.22,32,53.46-2.33Z" transform="translate(-45.63 -618.06)"/><path id="Path_74367" data-name="Path 74367" class="cls-49" d="M994.9,1041l-60,8.21,5.23,32,53.45-2.32Z" transform="translate(-45.63 -618.06)"/><path id="Path_74368" data-name="Path 74368" class="cls-50" d="M979.46,1048.31l-44.58.9,5.22,32,27.5-15.06Z" transform="translate(-45.63 -618.06)"/><path id="Path_74369" data-name="Path 74369" class="cls-51" d="M985.76,1072.27l2.93-30.43,6-1.48-1.14,38.58-53.45,2.32-.79-4.2Z" transform="translate(-45.63 -618.06)"/><path id="Path_74370" data-name="Path 74370" class="cls-51" d="M989.85,1062.07l-33.65,2,34-4.55Z" transform="translate(-45.63 -618.06)"/><path id="Path_74371" data-name="Path 74371" class="cls-51" d="M988.1,1051.78l-33.66,2,34-4.55Z" transform="translate(-45.63 -618.06)"/><rect id="Rectangle_9300" data-name="Rectangle 9300" class="cls-51" x="945.91" y="1047.1" width="3.5" height="16.75" transform="translate(-173.82 -487.05) rotate(-7.41)"/><rect id="Rectangle_9301" data-name="Rectangle 9301" class="cls-52" x="944.12" y="1045.58" width="3.51" height="16.75" transform="translate(-173.33 -487.64) rotate(-7.39)"/><rect id="Rectangle_9302" data-name="Rectangle 9302" class="cls-51" x="974.58" y="1043.51" width="3.5" height="16.73" transform="translate(-82.87 -582.22) rotate(-2.06)"/><rect id="Rectangle_9303" data-name="Rectangle 9303" class="cls-52" x="972.95" y="1041.83" width="3.5" height="16.74" transform="translate(-82.98 -582.11) rotate(-2.07)"/><path id="Path_74372" data-name="Path 74372" class="cls-53" d="M943.33,1073.77a1,1,0,0,0-1.94.22,1,1,0,0,0,1,.87A1,1,0,0,0,943.33,1073.77Z" transform="translate(-45.63 -618.06)"/><path id="Path_74373" data-name="Path 74373" class="cls-53" d="M950.72,1072.94a1,1,0,1,0-1,1.09A1,1,0,0,0,950.72,1072.94Z" transform="translate(-45.63 -618.06)"/><path id="Path_74374" data-name="Path 74374" class="cls-53" d="M958.88,1072.2a1,1,0,0,0-1.94.23,1,1,0,0,0,1,.86,1,1,0,0,0,1-1.08Z" transform="translate(-45.63 -618.06)"/><path id="Path_74375" data-name="Path 74375" class="cls-53" d="M967.83,1071.45a1,1,0,0,0-1.09-.86,1,1,0,0,0,.14,2A1,1,0,0,0,967.83,1071.45Z" transform="translate(-45.63 -618.06)"/><path id="Path_74376" data-name="Path 74376" class="cls-53" d="M975.41,1070.53a1,1,0,1,0-.95,1.08A1,1,0,0,0,975.41,1070.53Z" transform="translate(-45.63 -618.06)"/><path id="Path_74377" data-name="Path 74377" class="cls-53" d="M983.19,1069.79a1,1,0,1,0-1,1.09A1,1,0,0,0,983.19,1069.79Z" transform="translate(-45.63 -618.06)"/><path id="Path_74378" data-name="Path 74378" class="cls-51" d="M975.65,1056.3a1,1,0,0,0-1.08-.85,1,1,0,0,0,.13,1.94,1,1,0,0,0,.95-1.09Z" transform="translate(-45.63 -618.06)"/><path id="Path_74379" data-name="Path 74379" class="cls-51" d="M947.55,1060a1,1,0,0,0-1.09-.86,1,1,0,0,0,.14,2A1,1,0,0,0,947.55,1060Z" transform="translate(-45.63 -618.06)"/><path id="Path_74380" data-name="Path 74380" class="cls-42" d="M1045.05,1042.38c2.19,5.93,2,10.09,1,13.48,0,0-.92-7.51-2.5-8.52Z" transform="translate(-45.63 -618.06)"/><path id="Path_74381" data-name="Path 74381" class="cls-42" d="M1044.8,1048.58c.61,6.29-.61,10.26-2.42,13.3,0,0,1-7.5-.25-8.87Z" transform="translate(-45.63 -618.06)"/><path id="Path_74382" data-name="Path 74382" class="cls-42" d="M1045.33,1038.59c3.21,5.44,3.78,9.57,3.43,13.08,0,0-2.25-7.23-4-7.94Z" transform="translate(-45.63 -618.06)"/><path id="Path_74383" data-name="Path 74383" class="cls-42" d="M1042.09,1056.62c0,6.32-1.63,10.15-3.73,13,0,0,1.76-7.37.63-8.86Z" transform="translate(-45.63 -618.06)"/><path id="Path_74384" data-name="Path 74384" class="cls-40" d="M984.84,1161.81a21,21,0,0,1-1.1-5.93c1.08-1.68,1.16-3.49.22-4.68l0,0c-3.68-7,1-18.47,4.25-24.84a8.4,8.4,0,0,0,4.57-6.23,6.75,6.75,0,0,0-1.17-5.43c-.51-8.22,1.61-12.9,7.23-21.82l-.93,0c-6.12,9-8.46,13.57-8.24,21.91a6.71,6.71,0,0,1,1,5.48,8.38,8.38,0,0,1-4.8,6,63.25,63.25,0,0,0-4.59,10.26c-.19.69-.41,1.41-.64,2.12-1.2,4.38-1.55,8.84.12,12.3h0c.9,1.23.75,3-.38,4.68a21.2,21.2,0,0,0,.88,6c7.92,4.37,17.63,10.57-4,9.31a21.16,21.16,0,0,0,3,.27C1003.13,1171.93,993,1166,984.84,1161.81Z" transform="translate(-45.63 -618.06)"/><path id="Path_74385" data-name="Path 74385" class="cls-47" d="M986.78,1166c-3,.07,3.18,4,2.85,4.51l3.34-.39S988.24,1165.92,986.78,1166Z" transform="translate(-45.63 -618.06)"/><path id="Path_74386" data-name="Path 74386" class="cls-54" d="M989.78,1025.91c2.85-4.65,3.38-9.51,1.18-10.86s-6.29,1.34-9.13,6-3.38,9.52-1.18,10.87S986.94,1030.57,989.78,1025.91Z" transform="translate(-45.63 -618.06)"/><path id="Path_74387" data-name="Path 74387" class="cls-54" d="M949.68,1035.17c4-3.72,5.8-8.27,4-10.15s-6.42-.39-10.41,3.34-5.8,8.27-4,10.15S945.68,1038.9,949.68,1035.17Z" transform="translate(-45.63 -618.06)"/></g></g><g id="Group_16417" data-name="Group 16417"><path id="Path_74392" data-name="Path 74392" class="cls-55" d="M1864.83,667.12a17.68,17.68,0,1,1-17.67-17.68,17.24,17.24,0,0,1,5.82,1A17.65,17.65,0,0,1,1864.83,667.12Z" transform="translate(-45.63 -618.06)"/><path id="Path_74393" data-name="Path 74393" class="cls-56" d="M1864.83,667.12A17.68,17.68,0,0,1,1837.56,682l.47.09c2.29.32,4.54-.66,6.66-1.62.5-.22,1-.45,1.49-.72a1,1,0,0,0,.5-.49c.2-.59-.58-1-1.17-1s-1.35-.07-1.49-.68a15.66,15.66,0,0,0,4.83-1.39,6.28,6.28,0,0,0,3.28-3.87l-2.36.16a16.41,16.41,0,0,0,5.76-10.66,17.41,17.41,0,0,0-2.55-11.32A17.65,17.65,0,0,1,1864.83,667.12Z" transform="translate(-45.63 -618.06)"/></g><path id="Path_74394" data-name="Path 74394" class="cls-57" d="M939.21,802.71h-216l33.28-12c-3.88-7.55.34-18.34,8.55-20.89,4.52-1.41,10.27,0,12.29,4.28.31-3.61,1.44-7.48,4.45-9.49s8.12-.74,8.64,2.84c4-12.68,16.9-20.61,29.84-23.61,8.38-1.94,17.81-2.11,24.9,2.76s10,16.13,4,22.29c5.3-1.92,10.76-3.71,16.4-3.83s11.56,1.63,15.33,5.82,4.72,11.09,1.24,15.53c7.48-3.8,16.34-5.56,24.35-3.07a22.3,22.3,0,0,1,9.77,6.27,19.56,19.56,0,0,1,4.38,7.74Z" transform="translate(-45.63 -618.06)"/><path id="Path_74395" data-name="Path 74395" class="cls-57" d="M976.62,714.47H870l16.43-5.92c-1.92-3.73.17-9,4.22-10.31,2.23-.7,5.07,0,6.06,2.11.15-1.78.71-3.69,2.2-4.69s4-.36,4.26,1.41c2-6.26,8.35-10.18,14.73-11.66,4.14-.95,8.79-1,12.29,1.37s4.94,8,2,11a25.39,25.39,0,0,1,8.1-1.89,9.8,9.8,0,0,1,7.56,2.87c1.86,2.07,2.33,5.48.61,7.67,3.7-1.88,8.07-2.75,12-1.52a11,11,0,0,1,5,3.31,9.6,9.6,0,0,1,2,3.61Z" transform="translate(-45.63 -618.06)"/><path id="Path_74396" data-name="Path 74396" class="cls-57" d="M1135,753.64H991.33l15.19-4.38a3,3,0,0,1,.13-.59,7.63,7.63,0,0,1,9.17-4.91c2-4,6.42-6.88,10.85-6.33l.22,0c-1.57-4.41.07-10,4.22-12.15,4.34-2.25,10.67.53,11.28,5.37,1.71-7,3.73-14.53,9.33-19.08a16.69,16.69,0,0,1,25.69,19.94c3.78-4.15,8.47-8.66,14-8,4.39.49,8,4.43,8.63,8.8,0,.25.06.5.08.75a16.18,16.18,0,0,1,4.28-.51,9.19,9.19,0,0,1,6.89,3.14,6,6,0,0,1,.29,7.24,9.69,9.69,0,0,1,12.13,9.44Z" transform="translate(-45.63 -618.06)"/><path id="Path_74397" data-name="Path 74397" class="cls-57" d="M1359.21,802.71h-216l33.28-12c-3.88-7.55.34-18.34,8.55-20.89,4.52-1.41,10.27,0,12.29,4.28.31-3.61,1.44-7.48,4.45-9.49s8.12-.74,8.64,2.84c4-12.68,16.9-20.61,29.84-23.61,8.38-1.94,17.81-2.11,24.9,2.76s10,16.13,4,22.29c5.3-1.92,10.76-3.71,16.4-3.83s11.56,1.63,15.33,5.82,4.72,11.09,1.24,15.53c7.48-3.8,16.34-5.56,24.35-3.07a22.3,22.3,0,0,1,9.77,6.27,19.56,19.56,0,0,1,4.38,7.74Z" transform="translate(-45.63 -618.06)"/><path id="Path_74398" data-name="Path 74398" class="cls-57" d="M1396.62,714.47H1290l16.43-5.92c-1.92-3.73.17-9,4.22-10.31,2.23-.7,5.07,0,6.06,2.11.15-1.78.71-3.69,2.2-4.69s4-.36,4.26,1.41c2-6.26,8.35-10.18,14.73-11.66,4.14-.95,8.79-1,12.29,1.37s4.94,8,2,11a25.39,25.39,0,0,1,8.1-1.89,9.8,9.8,0,0,1,7.56,2.87c1.86,2.07,2.33,5.48.61,7.67,3.7-1.88,8.07-2.75,12-1.52a11,11,0,0,1,5,3.31,9.6,9.6,0,0,1,2,3.61Z" transform="translate(-45.63 -618.06)"/><path id="Path_74399" data-name="Path 74399" class="cls-57" d="M1555,753.64H1411.33l15.19-4.38a3,3,0,0,1,.13-.59,7.63,7.63,0,0,1,9.17-4.91c2-4,6.42-6.88,10.85-6.33l.22,0c-1.57-4.41.07-10,4.22-12.15,4.34-2.25,10.67.53,11.28,5.37,1.71-7,3.73-14.53,9.33-19.08a16.69,16.69,0,0,1,25.69,19.94c3.78-4.15,8.47-8.66,14-8,4.39.49,8,4.43,8.63,8.8,0,.25.06.5.08.75a16.18,16.18,0,0,1,4.28-.51,9.19,9.19,0,0,1,6.89,3.14,6,6,0,0,1,.29,7.24,9.69,9.69,0,0,1,12.13,9.44Z" transform="translate(-45.63 -618.06)"/><path id="Path_74400" data-name="Path 74400" class="cls-57" d="M1759.21,802.71h-216l33.28-12c-3.88-7.55.34-18.34,8.55-20.89,4.52-1.41,10.27,0,12.29,4.28.31-3.61,1.44-7.48,4.45-9.49s8.12-.74,8.64,2.84c4-12.68,16.9-20.61,29.84-23.61,8.38-1.94,17.81-2.11,24.9,2.76s10,16.13,4,22.29c5.3-1.92,10.76-3.71,16.4-3.83s11.56,1.63,15.33,5.82,4.72,11.09,1.24,15.53c7.48-3.8,16.34-5.56,24.35-3.07a22.3,22.3,0,0,1,9.77,6.27,19.56,19.56,0,0,1,4.38,7.74Z" transform="translate(-45.63 -618.06)"/><path id="Path_74401" data-name="Path 74401" class="cls-57" d="M1796.62,714.47H1690l16.43-5.92c-1.92-3.73.17-9,4.22-10.31,2.23-.7,5.07,0,6.06,2.11.15-1.78.71-3.69,2.2-4.69s4-.36,4.26,1.41c2-6.26,8.35-10.18,14.73-11.66,4.14-.95,8.79-1,12.29,1.37s4.94,8,2,11a25.39,25.39,0,0,1,8.1-1.89,9.8,9.8,0,0,1,7.56,2.87c1.86,2.07,2.33,5.48.61,7.67,3.7-1.88,8.07-2.75,12-1.52a11,11,0,0,1,5,3.31,9.6,9.6,0,0,1,2,3.61Z" transform="translate(-45.63 -618.06)"/><path id="Path_74402" data-name="Path 74402" class="cls-57" d="M1955,753.64H1811.33l15.19-4.38a3,3,0,0,1,.13-.59,7.63,7.63,0,0,1,9.17-4.91c2-4,6.42-6.88,10.85-6.33l.22,0c-1.57-4.41.07-10,4.22-12.15,4.34-2.25,10.67.53,11.28,5.37,1.71-7,3.73-14.53,9.33-19.08a16.69,16.69,0,0,1,25.69,19.94c3.78-4.15,8.47-8.66,14-8,4.39.49,8,4.43,8.63,8.8,0,.25.06.5.08.75a16.18,16.18,0,0,1,4.28-.51,9.19,9.19,0,0,1,6.89,3.14,6,6,0,0,1,.29,7.24,9.69,9.69,0,0,1,12.13,9.44Z" transform="translate(-45.63 -618.06)"/><g id="_____" data-name="     " class="cls-58"><text class="cls-59" transform="translate(133 127)">   </text><text class="cls-60" transform="translate(834 127)"> </text><text class="cls-59" transform="translate(133 194)"> </text></g></g></g></svg>