<svg xmlns="http://www.w3.org/2000/svg" width="42.268" height="39.724" viewBox="0 0 42.268 39.724">
  <g id="Group_1884" data-name="Group 1884" transform="translate(-933.146 -59.337)">
    <path id="Path_1504" data-name="Path 1504" d="M933.146,75.528c.463-.895,1.14-1.212,1.878-.877a1.677,1.677,0,0,1,.692.686c.094.147.2.286.346.495a19.137,19.137,0,0,1,.724-2.878c2.459-6.882,7.215-11.34,14.307-13.063a19.775,19.775,0,0,1,14.472,36.343c-6.85,3.855-13.779,3.784-20.556-.325a17.206,17.206,0,0,1-4.924-4.637,1.327,1.327,0,1,1,2.126-1.569,15.859,15.859,0,0,0,10.565,6.417,17.182,17.182,0,1,0-9.847-28.549A17.479,17.479,0,0,0,938.71,76c-.014.068-.06.142.015.174a.215.215,0,0,0,.187-.038c.182-.167.349-.35.527-.522a1.319,1.319,0,1,1,1.862,1.867q-1.609,1.629-3.239,3.238a1.289,1.289,0,0,1-2.085-.219c-.951-1.405-1.889-2.82-2.832-4.231Z" transform="translate(0 0)" fill="#70cf97"/>
    <path id="Path_1505" data-name="Path 1505" d="M1119.12,132.733c0-1.98,0-3.959,0-5.939a1.317,1.317,0,0,1,2.6-.3,2.457,2.457,0,0,1,.033.533q0,5.3-.005,10.6a.676.676,0,0,0,.3.612q3.442,2.587,6.871,5.19a1.386,1.386,0,0,1,.643,1.561,1.323,1.323,0,0,1-2.1.646c-1.281-.946-2.55-1.91-3.825-2.866s-2.565-1.937-3.859-2.888a1.53,1.53,0,0,1-.669-1.333C1119.125,136.61,1119.12,134.671,1119.12,132.733Z" transform="translate(-165.506 -58.844)" fill="#70cf97"/>
  </g>
</svg>