<svg xmlns="http://www.w3.org/2000/svg" width="36.989" height="37" viewBox="0 0 36.989 37">
  <g id="Group_1883" data-name="Group 1883" transform="translate(-852.559 -166.013)">
    <path id="Path_1502" data-name="Path 1502" d="M872.281,166.013a7.106,7.106,0,0,0,1.326.2,29.47,29.47,0,0,1,4.335,1.054c.032.01.057.042.1.077-.948.949-1.893,1.89-2.83,2.838-.13.132-.251.047-.366.017a15.052,15.052,0,0,0-4.972-.433,14.416,14.416,0,0,0-6.043,1.857,14.647,14.647,0,0,0-5.667,5.668,14.643,14.643,0,0,0,.5,15.263,14.666,14.666,0,0,0,5.6,5.08,14.094,14.094,0,0,0,7.26,1.656,14.539,14.539,0,0,0,11.306-5.9,14.314,14.314,0,0,0,3-8.556c.007-.272.078-.334.342-.33,1.023.017,2.046.013,3.069,0,.224,0,.3.038.3.288A18.584,18.584,0,0,1,874.833,202.6a17.849,17.849,0,0,1-14.19-2.844,18.245,18.245,0,0,1-7.7-11.481,16.83,16.83,0,0,1-.314-2.1c-.007-.075.039-.174-.073-.216v-2.89c.1-.03.067-.114.073-.179a18.107,18.107,0,0,1,.772-3.876,18.571,18.571,0,0,1,15.021-12.8,6.527,6.527,0,0,0,1.254-.192Z" transform="translate(0)" fill="#7f6aff"/>
    <path id="Path_1503" data-name="Path 1503" d="M972.092,222.523c-.064.083-.088.12-.118.152-.058.061-.118.12-.178.179q-8.963,8.963-17.922,17.932c-.219.219-.329.257-.571.014q-3.879-3.91-7.787-7.79c-.211-.209-.226-.313,0-.524q1.07-1.023,2.094-2.093c.207-.216.31-.177.5.012,1.722,1.734,3.461,3.451,5.173,5.195.271.276.389.223.628-.016q7.651-7.672,15.312-15.333c.219-.22.326-.236.547,0,.689.723,1.406,1.42,2.114,2.124A1.614,1.614,0,0,0,972.092,222.523Z" transform="translate(-84.38 -49.164)" fill="#7f6aff"/>
  </g>
</svg>