<svg xmlns="http://www.w3.org/2000/svg" width="35.372" height="30" viewBox="0 0 35.372 30">
  <g id="Group_18303" data-name="Group 18303" transform="translate(-941.314 -318)">
    <path id="Path_1249" data-name="Path 1249" d="M-119.2,61.589a4.764,4.764,0,0,0,.253-.872,5.129,5.129,0,0,1,4.92-3.532c.793-.013,1.587,0,2.381-.005.2,0,.3,0,.212.257a7.8,7.8,0,0,0-.364,2.581c0,2.381-.014,4.762.007,7.143a19.294,19.294,0,0,0,.14,3.811c-1.6,0-3.186.066-4.767-.021a2.866,2.866,0,0,1-2.63-2.1c-.036-.1-.017-.235-.152-.285Z" transform="translate(1060.514 277.003)" fill="#a65eed"/>
    <path id="Path_1250" data-name="Path 1250" d="M207.721,68.435c-.135.049-.116.183-.152.285a2.866,2.866,0,0,1-2.63,2.1c-1.581.087-3.171.021-4.728.021.221-2.257.076-4.519.1-6.778.018-1.656.042-3.312-.021-4.968a6.878,6.878,0,0,0-.328-1.791c-.033-.107-.147-.259.1-.252a22.594,22.594,0,0,1,3.478.1,5.052,5.052,0,0,1,4.115,4.268c.007.047.011.09.065.1Z" transform="translate(768.965 277.135)" fill="#a65eed"/>
    <path id="Path_1251" data-name="Path 1251" d="M-1.457,42.966q-3.523,0-7.046,0c-.808,0-1.193-.377-1.193-1.171q0-5.043,0-10.086A5.076,5.076,0,0,1-5.7,26.632a4.867,4.867,0,0,1,1.163-.123c2.049,0,4.1-.01,6.148,0a5.077,5.077,0,0,1,5.03,4.009,5.275,5.275,0,0,1,.119,1.233q0,5.008,0,10.016c0,.821-.377,1.195-1.2,1.2Q2.049,42.968-1.457,42.966Z" transform="translate(960.469 305.028)" fill="#a65eed"/>
    <path id="Path_1252" data-name="Path 1252" d="M20.635-130.217a6.136,6.136,0,0,1,6.12,6.1,6.119,6.119,0,0,1-6.155,6.169,6.147,6.147,0,0,1-6.125-6.169A6.156,6.156,0,0,1,20.635-130.217Z" transform="translate(938.383 448.218)" fill="#a65eed"/>
    <path id="Path_1253" data-name="Path 1253" d="M-83.275-59.3a4.619,4.619,0,0,1-4.617,4.565,4.612,4.612,0,0,1-4.561-4.625A4.591,4.591,0,0,1-87.8-63.911,4.58,4.58,0,0,1-83.275-59.3Z" transform="translate(1036.078 387.638)" fill="#a65eed"/>
    <path id="Path_1254" data-name="Path 1254" d="M166.537-59.352a4.612,4.612,0,0,1-4.574,4.613,4.62,4.62,0,0,1-4.6-4.578,4.582,4.582,0,0,1,4.569-4.6A4.593,4.593,0,0,1,166.537-59.352Z" transform="translate(807.838 387.643)" fill="#a65eed"/>
  </g>
</svg>