<svg xmlns="http://www.w3.org/2000/svg" width="39.523" height="39.542" viewBox="0 0 39.523 39.542">
  <g id="Group_1875" data-name="Group 1875" transform="translate(445.46 -208.598)">
    <path id="Path_1441" data-name="Path 1441" d="M-385.456,212.678a.856.856,0,0,1-.341.708q-1.816,1.563-3.633,3.125a.843.843,0,0,1-.992.179.892.892,0,0,1-.482-.892c0-.342.15-.787-.06-1s-.658-.042-1-.009a13.47,13.47,0,0,0-10.934,7.106c-.231.4-.235.42-.523.062a4.105,4.105,0,0,0-2.439-1.684c-.052-.01-.1-.027-.156-.035-.6-.1-.61-.1-.3-.618a17.645,17.645,0,0,1,12.971-8.808,12.12,12.12,0,0,1,2.107-.162c.294,0,.363-.1.342-.366a8.145,8.145,0,0,1,0-.838.8.8,0,0,1,.487-.761.807.807,0,0,1,.9.118q1.88,1.61,3.752,3.231A.775.775,0,0,1-385.456,212.678Z" transform="translate(-34.796)" fill="#356d92"/>
    <path id="Path_1442" data-name="Path 1442" d="M-445.46,347.475a.844.844,0,0,1,.249-.571c1.018-1.178,2.03-2.363,3.052-3.538a.893.893,0,0,1,1.565,0q1.417,1.652,2.838,3.3a4.4,4.4,0,0,1,.3.371.834.834,0,0,1-.639,1.322,6.861,6.861,0,0,1-.918,0c-.258-.017-.35.059-.334.332a13.577,13.577,0,0,0,7.016,11.586c.559.329.58.332.07.737a3.771,3.771,0,0,0-1.6,2.818c-.02.372-.235.136-.345.077a17.172,17.172,0,0,1-3.7-2.7,17.69,17.69,0,0,1-5.262-9.821,15.446,15.446,0,0,1-.255-2.7c0-.259-.073-.353-.337-.333a7.315,7.315,0,0,1-.878,0A.827.827,0,0,1-445.46,347.475Z" transform="translate(0 -119.992)" fill="#4e88a9"/>
    <path id="Path_1443" data-name="Path 1443" d="M-306.7,465.937a.835.835,0,0,1-.576-.242c-1.209-1.044-2.424-2.082-3.627-3.133a.841.841,0,0,1-.009-1.4c1.2-1.038,2.4-2.066,3.6-3.1a1,1,0,0,1,.6-.289.848.848,0,0,1,.889.831c.014.319.015.64,0,.958-.01.218.076.271.28.261a13.571,13.571,0,0,0,11.634-7c.335-.567.335-.586.76-.056a3.9,3.9,0,0,0,2.316,1.521c.065.013.13.031.2.039.541.071.546.074.255.569a17.645,17.645,0,0,1-12.44,8.762,13.126,13.126,0,0,1-2.579.244c-.372,0-.456.122-.423.455a4.9,4.9,0,0,1,0,.8A.823.823,0,0,1-306.7,465.937Z" transform="translate(-119.878 -217.798)" fill="#26a3d9"/>
    <path id="Path_1444" data-name="Path 1444" d="M-188.439,263.881a.757.757,0,0,1-.2.559c-1.035,1.2-2.061,2.405-3.107,3.595-.556.632-1.041.589-1.589-.06-.893-1.058-1.8-2.1-2.706-3.149-.026-.03-.054-.059-.081-.089-.311-.355-.646-.709-.39-1.236.243-.5.7-.49,1.169-.483.8.012.794,0,.748-.777a13.467,13.467,0,0,0-4.217-9.119,12.377,12.377,0,0,0-2.763-2.022c-.577-.313-.583-.319-.057-.733a3.881,3.881,0,0,0,1.466-2.036,2.632,2.632,0,0,0,.12-.664c0-.351.127-.338.378-.2a17.7,17.7,0,0,1,8.033,9.236,17.655,17.655,0,0,1,1.168,5.954c.009.314.113.387.4.365a6.344,6.344,0,0,1,.839,0A.8.8,0,0,1-188.439,263.881Z" transform="translate(-217.501 -34.645)" fill="#6fcce1"/>
  </g>
</svg>