<?xml version="1.0" encoding="UTF-8" standalone="no" ?>
<!DOCTYPE svg PUBLIC "-//W3C//DTD SVG 1.1//EN" "http://www.w3.org/Graphics/SVG/1.1/DTD/svg11.dtd">
<svg xmlns="http://www.w3.org/2000/svg" xmlns:xlink="http://www.w3.org/1999/xlink" version="1.1" width="1080" height="1080" viewBox="0 0 1080 1080" xml:space="preserve">
<desc>Created with Fabric.js 5.2.4</desc>
<defs>
</defs>
<g transform="matrix(1 0 0 1 540 540)" id="db97ad36-e3ac-430e-a959-968598a35bfd"  >
<rect style="stroke: none; stroke-width: 1; stroke-dasharray: none; stroke-linecap: butt; stroke-dashoffset: 0; stroke-linejoin: miter; stroke-miterlimit: 4; fill: rgb(255,255,255); fill-rule: nonzero; opacity: 1; visibility: hidden;" vector-effect="non-scaling-stroke"  x="-540" y="-540" rx="0" ry="0" width="1080" height="1080" />
</g>
<g transform="matrix(1 0 0 1 540 540)" id="252baa1b-e3be-4694-8fa4-6131a2da2de4"  >
</g>
<g transform="matrix(23.08 0 0 23.08 540 540)"  >
<g style=""   >
		<g transform="matrix(1 0 0 1 7.62 5.13)" id="Path_1445"  >
<path style="stroke: none; stroke-width: 1; stroke-dasharray: none; stroke-linecap: butt; stroke-dashoffset: 0; stroke-linejoin: miter; stroke-miterlimit: 4; fill: rgb(14,71,224); fill-rule: nonzero; opacity: 1;" vector-effect="non-scaling-stroke"  transform=" translate(-106.91, -889.77)" d="M 122.681 893.69 C 122.34 893.59 122.154 893.682 122.224 894.0740000000001 C 122.272 894.345 122.179 894.474 121.88600000000001 894.4240000000001 C 121.82700000000001 894.4130000000001 121.76400000000001 894.4240000000001 121.70400000000001 894.4240000000001 C 121.11683241439425 894.2933635044415 120.515713603726 894.5768480085828 120.24300000000001 895.113 C 119.63315508280907 896.0985304323041 118.43987946429309 896.5549634733487 117.328 896.2280000000001 C 116.19932161862575 896.018949508212 115.31935263323601 895.130607460433 115.121 894 C 115.05999999999999 893.728 114.97399999999999 893.663 114.71499999999999 893.664 Q 107.66099999999999 893.674 100.60699999999999 893.664 C 100.36399999999999 893.664 100.23999999999998 893.692 100.18699999999998 893.986 C 99.94517021154284 895.1825731478358 98.97616041934728 896.0972710599314 97.7676415635385 896.2697561893239 C 96.55912270772973 896.4422413187164 95.37291580560587 895.8351454176295 94.80599999999998 894.754 C 94.72529130789881 894.5253758323457 94.49529126211327 894.3847042979905 94.25499999999998 894.417 C 93.63199999999998 894.44 93.00699999999998 894.4110000000001 92.38399999999999 894.4300000000001 C 92.12199999999999 894.4380000000001 92.03399999999999 894.3570000000001 92.06299999999999 894.1010000000001 C 92.09199999999998 893.8450000000001 92.115 893.5950000000001 91.71999999999998 893.6610000000001 C 91.59299999999999 893.682 91.53999999999998 893.6030000000001 91.51999999999998 893.4760000000001 C 91.40499999999999 892.8330000000001 91.27999999999999 892.1920000000001 91.15799999999999 891.5500000000001 C 91.12013546418903 891.4462530386566 91.15763513275125 891.3300452745406 91.24899999999998 891.268 C 91.88599999999998 890.878 91.99299999999998 890.186 92.18599999999998 889.5600000000001 C 92.27865624266592 889.1473503381911 92.61414375018342 888.8332769268981 93.03199999999998 888.768 C 95.11199999999998 888.268 97.18199999999999 887.722 99.25599999999999 887.198 C 99.50492349052166 887.1357187181287 99.73468496689762 887.0131105760267 99.92499999999998 886.841 C 100.74899999999998 886.119 101.60199999999999 885.4300000000001 102.41199999999998 884.694 C 103.21614354905616 883.964211393974 104.24427489932972 883.5291242587758 105.32799999999997 883.4599999999999 C 108.80165406060694 883.164259765322 112.29226280374525 883.1224820850373 115.77199999999995 883.3349999999999 C 116.3044676328225 883.3411603212726 116.83608743376851 883.3792285733504 117.36399999999998 883.449 C 117.8479268964366 883.5208597205119 118.29002843505866 883.7639091217608 118.60999999999997 884.1339999999999 C 119.56799999999997 885.2339999999999 120.53299999999997 886.334 121.51699999999997 887.4129999999999 C 121.80213134173195 887.7256715943715 122.01243277814018 888.0990848765794 122.13199999999996 888.5049999999999 C 122.26804179959464 889.0610166196844 122.45240968777097 889.6040821051838 122.68299999999996 890.1279999999999 Z M 118.839 887.273 C 118.115 886.3820000000001 117.461 885.5840000000001 116.816 884.773 C 116.71183593179204 884.664997360401 116.56581853316102 884.6076855314384 116.416 884.616 C 114.94693362178381 884.4668103774708 113.4704687670247 884.402703355283 111.994 884.424 C 111.735 884.424 111.694 884.524 111.702 884.742 C 111.713 885.473 111.722 886.204 111.702 886.934 C 111.692 887.24 111.816 887.28 112.076 887.274 C 112.72999999999999 887.258 113.38499999999999 887.268 114.03999999999999 887.268 Z M 102.715 887.273 C 105.063 887.273 107.299 887.273 109.536 887.278 C 109.796 887.278 109.877 887.201 109.872 886.942 C 109.856 886.242 109.852 885.542 109.872 884.842 C 109.881 884.531 109.808 884.428 109.472 884.442 C 107.97999999999999 884.492 106.493 884.593 105.006 884.722 C 104.873 884.7339999999999 104.744 884.722 104.64 884.853 C 104.025 885.637 103.4 886.416 102.715 887.274 Z M 119.015 893.418 C 119.00190157583121 892.8323997585745 118.53716192528009 892.3571673971925 117.952 892.331 C 117.38269801450225 892.3426225445869 116.91827043511626 892.7904945442199 116.886 893.359 C 116.87078180098676 893.9460071491311 117.33023793746405 894.4362125323755 117.917 894.4590000000001 C 118.50265594356362 894.4623901326859 118.98710126464326 894.0039523402173 119.016 893.419 Z M 98.42 893.394 C 98.40039105101278 892.8086561505291 97.92558127178759 892.3413202289399 97.34 892.331 C 96.772694684756 892.3644259035093 96.31996438411981 892.8167266687558 96.286 893.384 C 96.29636818962042 893.9703292924615 96.76487305281066 894.4454328156968 97.351 894.464 C 97.93879881029639 894.4570059615403 98.41390728535258 893.9827847105271 98.422 893.395 Z" stroke-linecap="round" />
</g>
		<g transform="matrix(1 0 0 1 -4.97 -2.74)" id="Path_1446"  >
<path style="stroke: none; stroke-width: 1; stroke-dasharray: none; stroke-linecap: butt; stroke-dashoffset: 0; stroke-linejoin: miter; stroke-miterlimit: 4; fill: rgb(14,71,224); fill-rule: nonzero; opacity: 1;" vector-effect="non-scaling-stroke"  transform=" translate(21.19, -804.34)" d="M -14.279 795.424 C -10.594 795.424 -6.91 795.429 -3.2249999999999996 795.4159999999999 C -2.8699999999999997 795.4159999999999 -2.772 795.4989999999999 -2.7739999999999996 795.862 Q -2.7989999999999995 799.836 -2.7739999999999996 803.81 C -2.7739999999999996 804.146 -2.8439999999999994 804.241 -3.1959999999999997 804.2379999999999 C -5.677349112336219 804.1809767033968 -8.159838781407 804.2788334870694 -10.628999999999998 804.531 C -11.709147948311882 804.6222856011042 -12.738236449249277 805.0307203205432 -13.587 805.7049999999999 Q -14.966 806.8319999999999 -16.303 808.0049999999999 C -16.48362487472146 808.1660492211086 -16.70096272859503 808.2803833527671 -16.936 808.3379999999999 C -18.613 808.7649999999999 -20.288 809.2009999999999 -21.967 809.6239999999998 C -22.189557509398792 809.6728927054587 -22.41720699806984 809.6947175089449 -22.645 809.6889999999999 C -24.608999999999998 809.6889999999999 -26.573 809.6979999999999 -28.537 809.6889999999999 C -28.817 809.6889999999999 -28.918 809.7559999999999 -28.965 810.0469999999998 C -29.121671547778902 811.7859856055904 -30.52255354856824 813.1512087918142 -32.265 813.2629999999998 C -34.16805918777047 813.4191111313771 -35.86194747295392 812.0622451785824 -36.125 810.1709999999998 C -36.155 809.8029999999998 -36.26 809.6709999999998 -36.638 809.6919999999998 C -37.306 809.7219999999998 -37.978 809.6789999999997 -38.647 809.7049999999998 C -39.004999999999995 809.7189999999998 -39.199 809.6509999999998 -39.131 809.2449999999998 C -39.098 809.0449999999997 -39.123 808.8729999999998 -39.405 808.9239999999998 C -39.619 808.9629999999997 -39.605000000000004 808.8139999999997 -39.605000000000004 808.6699999999997 C -39.605000000000004 808.0149999999998 -39.599000000000004 807.3599999999998 -39.605000000000004 806.7059999999997 C -39.62032114665292 806.5521716644331 -39.555787002397466 806.4012146018473 -39.434000000000005 806.3059999999997 C -38.603608849668284 805.6265919286574 -38.066496066138534 804.6537016400905 -37.934000000000005 803.5889999999997 C -37.896679462658604 803.3005306852572 -37.680754620189575 803.0673479092821 -37.39600000000001 803.0079999999997 C -35.99600000000001 802.5559999999997 -34.60500000000001 802.0729999999998 -33.21000000000001 801.6079999999997 C -32.98041998042248 801.5314768373952 -32.76831902396765 801.4101306171157 -32.586000000000006 801.2509999999997 C -30.414000000000005 799.3879999999997 -28.234000000000005 797.5349999999997 -26.064000000000007 795.6689999999998 C -25.874903236268754 795.4966385679171 -25.62568414963451 795.4054258186302 -25.370000000000008 795.4149999999997 Q -19.829 795.431 -14.279 795.424 Z M -29.965 801.504 C -29.927875307674306 801.5211105897056 -29.88941386318635 801.5351573781272 -29.85 801.546 C -26.626 801.546 -23.402 801.546 -20.179000000000002 801.5640000000001 C -19.879 801.5640000000001 -19.879 801.4190000000001 -19.879 801.2 C -19.885 799.846 -19.893 798.493 -19.874000000000002 797.1400000000001 C -19.874000000000002 796.815 -19.994000000000003 796.7740000000001 -20.274 796.777 C -21.43 796.7900000000001 -22.589000000000002 796.835 -23.740000000000002 796.764 C -24.475906943240677 796.7035914376747 -25.19827086124164 796.9875882950074 -25.696 797.533 C -27.071 798.877 -28.51 800.159 -29.965 801.5 Z M -31.194 809.695 C -31.197247909827976 808.9435483366478 -31.80357488678831 808.3341028520911 -32.555 808.327 C -33.28837258376864 808.3275674988486 -33.8932058611336 808.9016539865146 -33.932 809.634 C -33.926533852205665 810.4005691339331 -33.30557913709788 811.0201865452755 -32.539 811.024 C -31.807132590881857 811.0172222482867 -31.212293034113674 810.4316701492821 -31.194 809.7 Z" stroke-linecap="round" />
</g>
</g>
</g>
</svg>