<svg id="Layer_1" data-name="Layer 1" xmlns="http://www.w3.org/2000/svg" viewBox="0 0 218.84 218.84"><defs><style>.cls-1{fill:#fefefe;}.cls-2{fill:#0b2bc8;}.cls-3{font-size:12px;fill:#fff;font-family:MyriadPro-Regular, Myriad Pro;}.cls-4{fill:#fafcfd;}</style></defs><path class="cls-1" d="M851,506.52V431q108.42,0,216.84,0c1.6,0,2,.36,2,2q-.08,107.46,0,214.92c0,1.6-.36,2-2,2q-107.46-.08-214.92,0c-1.6,0-2-.36-2-2q.07-70,0-140.08A67.14,67.14,0,0,1,870,515.69c.65.39,1.43.65,1.79,1.43q7.5,27.93,15,55.89a1.84,1.84,0,0,0,2.19,1.64c3.91-.07,7.82,0,11.73,0,5,0,5.06,0,7-4.75q12.38-30.57,24.73-61.14c.9-2.23.89-2.24-1.52-2.24-4.69,0-9.38.09-14.07-.05-1.66,0-2.31.55-2.85,2-4,10.93-8,21.82-12.07,32.73-1.34,3.59-2.68,7.18-4.24,11.38l-2.19-9.74c-1.49-9.07-3.52-18-5.42-27-1.26-6-5.57-9.3-11.72-9.32C869.18,506.49,860.11,506.51,851,506.52Zm155.48,68.18c6,0,11.71,0,17.39,0,1.08,0,1.25-.71,1.51-1.43,1.32-3.52,2.67-7,3.92-10.58a2,2,0,0,1,2.28-1.63c5.76.08,11.51.09,17.27,0,1.42,0,1.79.57,2,1.76.58,3.28,1.31,6.54,1.83,9.83.24,1.5.68,2.17,2.39,2.11,4.11-.14,8.24-.1,12.36,0,1.44,0,2-.13,1.57-1.82-1.41-6.22-2.63-12.49-3.93-18.74q-4.74-22.92-9.47-45.85c-.25-1.18-.65-1.79-2.06-1.75-3.91.12-7.82.06-11.73,0-4.78,0-7.95,2-9.81,6.6-5.46,13.47-11.14,26.86-16.73,40.28C1012.42,560.45,1009.55,567.39,1006.52,574.7Zm-28.27.08c7-.08,14.47-1.45,21.1-6.08,9.08-6.33,13.54-22.33-.24-31.12-2.28-1.45-4.69-2.65-7.08-3.89s-5.15-2.44-7.22-4.45-2.08-4.49.17-6.45a10.16,10.16,0,0,1,6.09-2.23,30.32,30.32,0,0,1,15.39,2.45c1.06.49,1.6.5,1.8-.83.57-3.72,1.16-7.43,1.85-11.13.27-1.46-.33-2-1.62-2.38a45.81,45.81,0,0,0-16.6-2.05c-7.29.5-14.12,2.35-19.89,7.16-7.49,6.24-11.37,19.8,1,28.32a58.17,58.17,0,0,0,6.24,3.66c2.72,1.38,5.56,2.57,7.9,4.58,3.4,2.92,3,6.86-1,9a15.53,15.53,0,0,1-7.4,1.67,37.35,37.35,0,0,1-16.87-3.83c-1.29-.63-1.82-.45-2,1-.55,3.72-1.09,7.45-1.85,11.13-.34,1.66.27,2.28,1.68,2.72A62,62,0,0,0,978.25,574.78Zm-40.07-.08c2.34,0,4.69-.06,7,0,1.22,0,1.69-.28,1.89-1.58,1.35-8.9,2.81-17.79,4.25-26.68q3.09-19.1,6.22-38.2c.23-1.43-.15-1.83-1.59-1.8-4.19.08-8.38,0-12.57,0-3.21,0-3.16,0-3.67,3.21q-3.29,20.69-6.64,41.36c-1.17,7.28-2.33,14.56-3.54,21.84-.23,1.38.11,1.9,1.59,1.83C933.49,574.62,935.84,574.7,938.18,574.7Z" transform="translate(-851 -431)"/><path class="cls-2" d="M851,506.52c9.07,0,18.14,0,27.21,0,6.15,0,10.46,3.32,11.72,9.32,1.9,9,3.93,17.95,5.42,27a59.93,59.93,0,0,0-15.54-20c-2.52-2.15-5-4.44-8.1-5.72-.36-.78-1.14-1-1.79-1.43A67.14,67.14,0,0,0,851,507.8Z" transform="translate(-851 -431)"/><text class="cls-3" transform="translate(83.38 112.02)">#0b2bc8</text><path class="cls-2" d="M1006.52,574.7c3-7.31,5.9-14.25,8.79-21.18,5.59-13.42,11.27-26.81,16.73-40.28,1.86-4.59,5-6.64,9.81-6.6,3.91,0,7.82.08,11.73,0,1.41,0,1.81.57,2.06,1.75q4.71,22.93,9.47,45.85c1.3,6.25,2.52,12.52,3.93,18.74.38,1.69-.13,1.85-1.57,1.82-4.12-.08-8.25-.12-12.36,0-1.71.06-2.15-.61-2.39-2.11-.52-3.29-1.25-6.55-1.83-9.83-.21-1.19-.58-1.79-2-1.76-5.76.09-11.51.08-17.27,0a2,2,0,0,0-2.28,1.63c-1.25,3.55-2.6,7.06-3.92,10.58-.26.72-.43,1.44-1.51,1.43C1018.23,574.67,1012.55,574.7,1006.52,574.7Zm35.81-48.41h-.46c-2.19,7-4.38,14-6.64,21.17,3.76,0,7.36,0,11,0,1.06,0,1.18-.47,1-1.31Z" transform="translate(-851 -431)"/><path class="cls-2" d="M978.25,574.78a62,62,0,0,1-18.52-2.72c-1.41-.44-2-1.06-1.68-2.72.76-3.68,1.3-7.41,1.85-11.13.22-1.46.75-1.64,2-1A37.35,37.35,0,0,0,978.81,561a15.53,15.53,0,0,0,7.4-1.67c3.95-2.16,4.38-6.1,1-9-2.34-2-5.18-3.2-7.9-4.58a58.17,58.17,0,0,1-6.24-3.66c-12.42-8.52-8.54-22.08-1-28.32,5.77-4.81,12.6-6.66,19.89-7.16a45.81,45.81,0,0,1,16.6,2.05c1.29.39,1.89.92,1.62,2.38-.69,3.7-1.28,7.41-1.85,11.13-.2,1.33-.74,1.32-1.8.83a30.32,30.32,0,0,0-15.39-2.45,10.16,10.16,0,0,0-6.09,2.23c-2.25,2-2.32,4.37-.17,6.45s4.7,3.14,7.22,4.45,4.8,2.44,7.08,3.89c13.78,8.79,9.32,24.79.24,31.12C992.72,573.33,985.22,574.7,978.25,574.78Z" transform="translate(-851 -431)"/><path class="cls-2" d="M871.75,517.12c3.14,1.28,5.58,3.57,8.1,5.72a59.93,59.93,0,0,1,15.54,20l2.19,9.74c1.56-4.2,2.9-7.79,4.24-11.38,4-10.91,8.1-21.8,12.07-32.73.54-1.48,1.19-2.07,2.85-2,4.69.14,9.38.05,14.07.05,2.41,0,2.42,0,1.52,2.24Q920,539.31,907.6,569.88c-1.92,4.75-1.93,4.75-7,4.75-3.91,0-7.82,0-11.73,0A1.84,1.84,0,0,1,886.7,573Q879.29,545,871.75,517.12Z" transform="translate(-851 -431)"/><path class="cls-2" d="M938.18,574.7c-2.34,0-4.69-.08-7,0-1.48.07-1.82-.45-1.59-1.83,1.21-7.28,2.37-14.56,3.54-21.84q3.33-20.67,6.64-41.36c.51-3.21.46-3.21,3.67-3.21,4.19,0,8.38.05,12.57,0,1.44,0,1.82.37,1.59,1.8q-3.17,19.1-6.22,38.2c-1.44,8.89-2.9,17.78-4.25,26.68-.2,1.3-.67,1.63-1.89,1.58C942.87,574.64,940.52,574.7,938.18,574.7Z" transform="translate(-851 -431)"/><path class="cls-4" d="M1042.33,526.29l4.83,19.89c.21.84.09,1.32-1,1.31-3.6,0-7.2,0-11,0,2.26-7.19,4.45-14.18,6.64-21.17Z" transform="translate(-851 -431)"/></svg>